<?xml version="1.0" encoding="UTF-8" standalone="no"?>
<svg
   width="800px"
   height="800px"
   viewBox="0 0 128 128"
   fill="none"
   version="1.1"
   id="svg228"
   sodipodi:docname="dualsense.svg"
   xml:space="preserve"
   inkscape:version="1.2.1 (9c6d41e410, 2022-07-14)"
   xmlns:inkscape="http://www.inkscape.org/namespaces/inkscape"
   xmlns:sodipodi="http://sodipodi.sourceforge.net/DTD/sodipodi-0.dtd"
   xmlns="http://www.w3.org/2000/svg"
   xmlns:svg="http://www.w3.org/2000/svg"><defs
     id="defs232" /><sodipodi:namedview
     id="namedview230"
     pagecolor="#505050"
     bordercolor="#eeeeee"
     borderopacity="1"
     inkscape:showpageshadow="0"
     inkscape:pageopacity="0"
     inkscape:pagecheckerboard="0"
     inkscape:deskcolor="#505050"
     showgrid="false"
     showguides="true"
     inkscape:zoom="1"
     inkscape:cx="371.99999"
     inkscape:cy="569.99998"
     inkscape:window-width="1920"
     inkscape:window-height="1009"
     inkscape:window-x="1912"
     inkscape:window-y="-8"
     inkscape:window-maximized="1"
     inkscape:current-layer="rect4883" /><g
     id="g2583"
     inkscape:label="Controller"
     transform="matrix(1.1030302,0,0,1.1030302,-6.5939477,-19.393848)"><path
       id="path1628"
       style="color:#000000;fill:#cccccc;stroke:#cccccc;stroke-width:1.6;stroke-linejoin:bevel;stroke-dasharray:none;stroke-opacity:1;paint-order:stroke markers fill"
       d="m 95.286565,25.983039 c -1.253733,-4.51e-4 -2.542862,0.143834 -3.831562,0.4875 -0.442303,0.118056 -0.754065,0.524936 -0.754063,0.9825 v 1.588125 c -1.376236,-0.06414 -2.655834,-0.09284 -3.765312,-0.09219 h -0.0019 c -0.8594,-0.0044 -1.635916,0.0059 -2.296875,0.0275 -0.135993,0.0045 -0.219778,0.116329 -0.337813,0.17 -0.591744,-0.275579 -1.255819,-0.520917 -2.0781,-0.70531 -5.367423,-1.203437 -12.126774,-1.494063 -17.226562,-1.494063 l -3.13e-4,3.13e-4 c -4.900789,0 -13.663432,0.477212 -18.199062,1.494062 -0.840737,0.188563 -1.657093,0.382386 -2.4025,0.646563 -0.206227,0.0731 -0.40207,0.16033 -0.5975,0.247812 -0.160107,-0.118222 -0.221587,-0.352469 -0.431875,-0.359375 -0.660989,-0.02166 -1.437484,-0.03159 -2.296875,-0.02719 h -0.0019 c -0.09528,-7.1e-5 -0.185167,-0.0026 -0.292813,-0.0022 -1.135043,0.0043 -2.436639,0.04105 -3.828125,0.1125 v -1.606562 c -2e-6,-0.458032 -0.311877,-0.864164 -0.754062,-0.982188 -1.288686,-0.343674 -2.578176,-0.487057 -3.831875,-0.486562 v 3.12e-4 c -1.832395,7.24e-4 -3.587562,0.309548 -5.162188,0.761563 -2.650757,0.761076 -4.821409,1.929564 -6.068437,2.820312 -0.266912,0.19054 -0.425625,0.498652 -0.425625,0.82625 v 1.589688 c -0.434167,0.171738 -0.860676,0.35006 -1.267813,0.542812 v -0.0019 c -0.197766,0.09351 -0.360257,0.250107 -0.462812,0.443438 -1.539514,2.90402 -4.125651,8.703928 -6.501875,16.074062 -1.742986,5.314793 -3.3657995,11.437698 -4.3712501,17.863438 -0.7830049,5.004171 -1.1263214,9.452819 -1.113125,13.349375 -6.7e-6,0.0014 5.8e-6,0.0027 0,0.0041 2.1e-6,6.07e-4 -2.1e-6,0.0012 0,0.0019 -2.462e-4,0.06495 0.00198,0.124593 0.00188,0.179688 v 0.0041 c 1.046e-4,0.01637 -1.269e-4,0.03518 0,0.05281 -0.00404,3.73302 0.3037262,6.972555 0.86125,9.714687 1.1288362,5.552046 3.2879511,9.235896 6.1740621,10.687501 1.720607,0.8653 3.056993,1.042 4.083438,0.5625 l 3.758437,0.51 c 0.0525,0.007 0.0988,0.008 0.136563,0.008 0.757683,-2e-5 1.450516,-0.15056 2.064375,-0.48844 0.610356,-0.3367 1.09146,-0.82628 1.502187,-1.40219 0.672883,-0.943407 1.234573,-2.209794 1.939375,-3.777501 0.134247,-0.298504 0.274496,-0.607722 0.42,-0.927812 1.228926,-2.703602 2.476032,-5.911812 3.542813,-8.654063 l 0.09781,-0.25 c 0.545075,-1.401077 1.038841,-2.667933 1.455,-3.67 0.422895,-1.01827 0.768575,-1.740505 0.92375,-1.974687 0.356627,-0.538144 0.759254,-1.1347 1.259688,-1.707813 0.110314,-0.12609 0.224492,-0.250568 0.345625,-0.374375 l -3.13e-4,-3.12e-4 c 0.404242,-0.413397 0.868696,-0.803871 1.414688,-1.138125 1.428639,-0.874711 3.479072,-1.426543 6.712812,-0.78125 0.06626,0.01333 0.132702,0.01937 0.199063,0.01937 h 40.181875 c 0.08211,0 0.165287,-0.0083 0.247812,-0.02906 2.505018,-0.632201 4.573599,-0.32218 6.26,0.640625 1.693362,0.966788 3.06136,2.64284 3.995938,4.890625 0.293125,0.704966 0.559393,1.36461 0.804687,1.989688 0.245274,0.625049 0.468045,1.215565 0.677813,1.78125 l 0.0016,-6.25e-4 c 0.419537,1.131372 0.780218,2.164384 1.13125,3.180625 0.06676,0.193568 0.132734,0.385731 0.199063,0.578125 0.632396,1.834895 1.264792,3.670472 2.179687,5.957187 0.08321,0.209124 0.167861,0.425125 0.252188,0.644375 0.460041,1.186068 0.967951,2.521718 1.812501,3.590003 0.51258,0.64937 1.17072,1.21864 2.02125,1.57031 0.85091,0.35241 1.84523,0.46905 2.98438,0.32625 l 0.008,-0.002 3.1e-4,0.002 c 0.004,-6.1e-4 0.0109,-0.002 0.0181,-0.003 0.002,-2.4e-4 9.6e-4,4e-5 0.003,-3.1e-4 l 0.0134,-0.002 1.14375,-0.19437 2.075,-0.3525 c 1.02955,0.49251 2.35694,0.35186 4.09,-0.51969 2.8861,-1.451623 5.04476,-5.135491 6.17375,-10.687503 0.55743,-2.741248 0.86502,-5.979452 0.86125,-9.710937 v -0.0038 c 1e-4,-0.01985 -1.1e-4,-0.04035 0,-0.05875 v -0.0038 c -1.1e-4,-0.0535 0.002,-0.110378 0.002,-0.174063 0.0137,-3.897936 -0.33015,-8.348686 -1.11344,-13.355312 -1.0018,-6.401508 -2.61601,-12.501992 -4.35156,-17.802813 v -0.0019 C 113.16892,41.701719 110.57283,35.879464 109.0289,32.96753 v -0.0022 c -0.10179,-0.190004 -0.26341,-0.34746 -0.46281,-0.44125 v 0.0019 c -0.51756,-0.245059 -1.06159,-0.472523 -1.62344,-0.685312 v -1.4475 c 0,-0.327645 -0.15777,-0.635596 -0.42563,-0.825938 -1.24705,-0.890756 -3.41592,-2.059237 -6.06656,-2.820312 -0.21187,-0.06082 -0.42737,-0.118774 -0.645629,-0.174063 -0.0068,-0.0019 -0.01277,-0.0038 -0.02,-0.0056 h -3.12e-4 v 3.13e-4 c -0.415261,-0.104754 -0.841419,-0.198398 -1.276875,-0.27875 -0.0073,-0.0017 -0.0145,-0.0036 -0.02187,-0.005 v 3.12e-4 6.25e-4 C 97.731136,26.145528 96.9489,26.047583 96.14844,26.005851 c -0.285126,-0.01487 -0.572551,-0.02271 -0.861875,-0.02281 z m -62.929062,1.032812 c 1.170412,-4.62e-4 2.366074,0.135167 3.554687,0.450938 v 1.650625 c -0.227505,0.01385 -0.453283,0.02708 -0.685312,0.04312 -0.02932,0.0021 -0.05682,0.0032 -0.08625,0.0053 -0.01354,9.8e-4 -0.0277,0.0024 -0.04125,0.0034 -0.493048,0.03595 -0.994056,0.07741 -1.500938,0.12375 -0.01478,0.0014 -0.02896,0.0024 -0.04375,0.0038 -0.01237,0.0011 -0.02513,0.0026 -0.0375,0.0038 -0.511956,0.04726 -1.030111,0.09965 -1.55125,0.158437 -0.01218,0.0014 -0.02407,0.0024 -0.03625,0.0038 -0.01129,0.0013 -0.02277,0.0031 -0.03406,0.0044 -0.532076,0.06063 -1.067657,0.128422 -1.605313,0.202188 -0.0018,2.43e-4 -0.0035,3.81e-4 -0.0053,6.25e-4 -0.0044,5.99e-4 -0.0088,0.0013 -0.01312,0.0019 -0.266382,0.03656 -0.534132,0.07339 -0.80125,0.113437 -0.0046,6.87e-4 -0.0092,0.0012 -0.01375,0.0019 -0.0045,6.75e-4 -0.0089,0.0015 -0.01344,0.0022 -0.271256,0.04087 -0.541441,0.0842 -0.8125,0.12875 -0.275716,0.04531 -0.551618,0.09324 -0.82625,0.1425 -0.250708,0.04497 -0.501339,0.09081 -0.75125,0.139062 -0.0236,0.0046 -0.04735,0.0085 -0.07094,0.01312 -0.02395,0.0047 -0.04763,0.01 -0.07156,0.01469 -0.24929,0.0493 -0.498139,0.100868 -0.745,0.153437 -0.270701,0.05764 -0.538835,0.117616 -0.806562,0.179688 -0.256388,0.05945 -0.512179,0.119592 -0.765313,0.183125 -0.01107,0.0028 -0.02238,0.0053 -0.03344,0.0081 -0.01671,0.0042 -0.03299,0.0089 -0.04969,0.01313 -0.247204,0.06276 -0.492542,0.12721 -0.735625,0.194062 -0.238218,0.06551 -0.474217,0.134499 -0.708437,0.204375 -0.02086,0.0062 -0.0423,0.01188 -0.06312,0.01813 -0.01919,0.0058 -0.03773,0.01203 -0.05687,0.01781 -0.234641,0.07083 -0.466731,0.143448 -0.696875,0.21875 -0.174157,0.05698 -0.344632,0.116394 -0.515625,0.175937 v -1.191562 c 1.132239,-0.807594 3.22688,-1.94071 5.74625,-2.664063 1.498964,-0.430295 3.160674,-0.721822 4.876875,-0.7225 z m 62.934062,0 c 0.129774,2.2e-5 0.259045,0.002 0.388125,0.0053 v 3.12e-4 c 0.0056,1.44e-4 0.0062,2.2e-5 0.01,0 0.136354,0.0036 0.272344,0.0085 0.407813,0.01563 0.306014,0.01599 0.6096,0.04095 0.910312,0.07344 v 9.37e-4 c 0.01826,0.002 0.02996,0.0032 0.03531,0.0038 v -6.25e-4 c 0.425167,0.04683 0.844245,0.108999 1.255625,0.184375 0.0027,4.88e-4 0.0055,7.67e-4 0.0081,0.0012 0.417492,0.07669 0.826725,0.167026 1.22625,0.267813 v 3.12e-4 c 0.02119,0.0053 0.04241,0.01132 0.06656,0.0175 l 3.13e-4,-9.37e-4 c 0.190875,0.04885 0.379874,0.09971 0.565937,0.153125 2.52003,0.723577 4.61395,1.856429 5.74594,2.664062 v 1.070313 c -0.0466,-0.01556 -0.0924,-0.03135 -0.13906,-0.04687 -0.008,-0.0025 -0.0149,-0.0053 -0.0225,-0.0078 -1e-4,-3.1e-5 -2.2e-4,3.1e-5 -3.2e-4,0 -0.005,-0.0015 -0.009,-0.0029 -0.0141,-0.0044 -0.23924,-0.07815 -0.48065,-0.153932 -0.72562,-0.2275 -0.005,-0.0014 -0.009,-0.003 -0.0141,-0.0044 -9e-5,-2.8e-5 -2.1e-4,2.9e-5 -3.1e-4,0 -0.005,-0.0014 -0.009,-0.0027 -0.0141,-0.0041 -0.24546,-0.07351 -0.49352,-0.145498 -0.74344,-0.214375 -0.005,-0.0013 -0.009,-0.0028 -0.0138,-0.0041 -1e-4,-2.6e-5 -2.2e-4,2.7e-5 -3.1e-4,0 -0.005,-0.0013 -0.01,-0.0027 -0.0147,-0.0041 -0.24979,-0.06858 -0.50145,-0.135097 -0.75562,-0.199375 -0.005,-0.0012 -0.01,-0.0025 -0.0144,-0.0038 -1e-4,-2.5e-5 -2.1e-4,2.4e-5 -3.1e-4,0 -0.003,-7.1e-4 -0.006,-0.0015 -0.008,-0.0022 -0.25683,-0.06474 -0.51639,-0.125594 -0.77656,-0.185937 -0.004,-0.001 -0.009,-0.0021 -0.0134,-0.0031 -1e-4,-2.3e-5 -2.1e-4,2.3e-5 -3.1e-4,0 -0.005,-0.0011 -0.009,-0.002 -0.0141,-0.0031 -0.25844,-0.05985 -0.51755,-0.117722 -0.77875,-0.173438 -0.005,-9.83e-4 -0.009,-0.0021 -0.0138,-0.0031 -10e-5,-2.1e-5 -2.2e-4,2.1e-5 -3.2e-4,0 -0.005,-0.0011 -0.01,-0.0021 -0.015,-0.0031 -0.26097,-0.05553 -0.52336,-0.110354 -0.78625,-0.161875 -0.005,-9.62e-4 -0.01,-0.0022 -0.0147,-0.0031 -1e-4,-1.9e-5 -2.2e-4,2e-5 -3.2e-4,0 -0.005,-10e-4 -0.0106,-0.0021 -0.0159,-0.0031 -0.26245,-0.05115 -0.52618,-0.09886 -0.79032,-0.14625 -0.005,-9.36e-4 -0.0104,-0.0019 -0.0156,-0.0028 -1e-4,-1.8e-5 -2.1e-4,1.8e-5 -3.1e-4,0 -0.005,-9.15e-4 -0.0102,-0.0019 -0.0153,-0.0028 -0.264484,-0.04738 -0.530122,-0.09377 -0.795622,-0.1375 -0.005,-8.23e-4 -0.01,-0.0017 -0.015,-0.0025 -1.02e-4,-1.7e-5 -2.11e-4,1.7e-5 -3.13e-4,0 -0.0054,-8.89e-4 -0.01084,-0.0016 -0.01625,-0.0025 -0.264698,-0.04346 -0.528685,-0.08567 -0.79375,-0.125625 -0.0053,-8.02e-4 -0.01061,-0.0017 -0.01594,-0.0025 -1.02e-4,-1.5e-5 -2.1e-4,1.5e-5 -3.13e-4,0 -0.0045,-6.72e-4 -0.009,-0.0012 -0.01344,-0.0019 -0.267122,-0.04005 -0.534871,-0.07688 -0.80125,-0.113437 -0.0044,-6e-4 -0.0088,-0.0013 -0.01313,-0.0019 -1.03e-4,-1.5e-5 -2.1e-4,1.4e-5 -3.13e-4,0 -0.0015,-2.01e-4 -0.0029,-4.25e-4 -0.0044,-6.25e-4 -0.547838,-0.07517 -1.093646,-0.144447 -1.635625,-0.205938 -0.0014,-1.54e-4 -0.0027,-4.71e-4 -0.0041,-6.25e-4 -1.04e-4,-1.2e-5 -2.09e-4,1.2e-5 -3.13e-4,0 -0.0013,-1.53e-4 -0.0027,-1.59e-4 -0.0041,-3.12e-4 -0.543207,-0.06151 -1.083294,-0.116299 -1.616563,-0.165313 -0.0013,-1.24e-4 -0.0027,-1.89e-4 -0.0041,-3.12e-4 -1.05e-4,-10e-6 -2.08e-4,9e-6 -3.13e-4,0 -0.0013,-1.15e-4 -0.0025,-1.98e-4 -0.0037,-3.13e-4 -0.533654,-0.049 -1.060724,-0.09282 -1.57875,-0.130312 -10e-4,-7.6e-5 -0.0021,-2.38e-4 -0.0031,-3.13e-4 -1.05e-4,-8e-6 -2.06e-4,8e-6 -3.12e-4,0 -0.0012,-8.3e-5 -0.0023,-2.29e-4 -0.0034,-3.12e-4 -0.376043,-0.02716 -0.741194,-0.04757 -1.106562,-0.06906 -0.005,-2.93e-4 -0.01001,-6.43e-4 -0.015,-9.37e-4 v -1.62875 c 1.188899,-0.315624 2.386181,-0.451132 3.557187,-0.450938 z m -30.2975,0.9625 v 3.13e-4 c 5.059722,0 11.781191,0.300088 17.001875,1.470625 0.843209,0.189086 1.517319,0.423713 2.052813,0.69125 l 0.634687,-0.138438 c -8.39e-4,0.001 -0.0095,0.0054 -0.01344,0.0056 0.645387,-0.02112 1.410578,-0.03157 2.259687,-0.02719 h 0.0038 c 1.237034,-7.55e-4 2.687137,0.03404 4.255938,0.117187 0.01428,7.68e-4 0.02027,4.68e-4 0.03156,6.25e-4 0.02028,3.53e-4 0.03774,5.06e-4 0.05031,0.0012 6.9e-5,4e-6 2.43e-4,-4e-6 3.12e-4,0 8.26e-4,4.5e-5 0.0017,-4.5e-5 0.0025,0 0.492704,0.02674 0.997737,0.05882 1.510938,0.09594 0.514195,0.0372 1.037611,0.08015 1.566562,0.12875 0.529064,0.0486 1.063118,0.103055 1.601563,0.164062 0.537135,0.0609 1.078502,0.128673 1.620937,0.203125 0.266978,0.03664 0.534693,0.07524 0.801563,0.115313 0.0043,6.4e-4 0.0085,0.0012 0.01281,0.0019 0.0041,6.1e-4 0.0081,0.0013 0.01219,0.0019 0.26738,0.04022 0.535512,0.08113 0.8025,0.125 0.266309,0.04377 0.531955,0.09089 0.79719,0.138437 0.004,7.83e-4 0.009,0.0014 0.0131,0.0022 0.005,8.24e-4 0.009,0.0017 0.0138,0.0025 0.26495,0.04758 0.52801,0.09666 0.79125,0.148125 0.26775,0.05234 0.53398,0.105496 0.79875,0.161875 0.26492,0.05641 0.52953,0.115325 0.79094,0.175937 0.25723,0.05963 0.51172,0.122433 0.76469,0.18625 0.004,10e-4 0.008,0.0021 0.0125,0.0031 0.004,0.0011 0.009,0.0023 0.0134,0.0034 0.25264,0.06386 0.50434,0.129567 0.7525,0.197812 0.25245,0.06943 0.50132,0.14079 0.74782,0.214688 0.24644,0.07388 0.49021,0.150094 0.73062,0.22875 0.22274,0.07288 0.44233,0.147615 0.65875,0.224375 0.0166,0.0059 0.0335,0.01159 0.05,0.0175 0.0271,0.0097 0.0647,0.02541 0.11344,0.04313 0.65731,0.238545 1.28526,0.4942 1.87125,0.771562 1.50152,2.832866 4.08346,8.624983 6.44531,15.962813 l 0.002,0.0041 c 1.72179,5.258568 3.32131,11.306901 4.3125,17.640625 0.77593,4.959678 1.11317,9.35839 1.09968,13.193125 v 0.0041 c 2.6e-4,0.05409 -1.3e-4,0.11135 0,0.175625 -1.2e-4,0.02018 1e-4,0.04007 0,0.05875 v 0.0038 c 0.004,3.675773 -0.30111,6.848489 -0.84187,9.507812 -1.09501,5.384882 -3.19122,8.746509 -5.625,9.970625 -1.63374,0.821601 -2.60211,0.852751 -3.24313,0.520931 -0.003,-0.004 -0.005,-0.006 -0.0125,-0.0131 -2e-5,-2e-5 -2.9e-4,2e-5 -3.1e-4,0 -0.0536,-0.05 -0.17646,-0.16933 -0.38062,-0.375 -0.13065,-0.154707 -0.23659,-0.284432 -0.31844,-0.390623 -0.0846,-0.109774 -0.14581,-0.197336 -0.19125,-0.265625 -0.0451,-0.06781 -0.0757,-0.117774 -0.0997,-0.161875 v -0.0022 c -0.0237,-0.04387 -0.042,-0.08175 -0.0625,-0.125 l -0.002,-0.0038 c -0.0251,-0.05141 -0.0507,-0.103381 -0.0781,-0.158125 v -0.0019 c -3e-5,-6.2e-5 2e-5,-2.5e-4 0,-3.12e-4 -0.24164,-0.607685 -0.59405,-1.515951 -1.035,-2.650313 -0.33624,-0.865534 -0.72456,-1.862694 -1.15438,-2.962812 -0.42983,-1.100117 -0.90175,-2.303052 -1.40625,-3.57625 -0.5045,-1.273218 -1.04118,-2.616742 -1.60156,-4.001875 -0.28019,-0.692563 -0.56654,-1.396226 -0.85719,-2.105313 -5e-5,-1.25e-4 -2.6e-4,-1.88e-4 -3.1e-4,-3.12e-4 -0.29061,-0.708991 -0.58401,-1.424457 -0.88281,-2.1425 -0.39755,-0.955603 -0.80086,-1.9141 -1.20688,-2.867188 -0.40602,-0.953129 -0.81574,-1.899048 -1.224683,-2.831875 -0.408987,-0.932917 -0.81823,-1.85125 -1.224687,-2.74625 v -0.0019 C 98.330289,72.666384 98.127932,72.22596 97.926302,71.791125 97.72477,71.356497 97.524097,70.927977 97.32474,70.508 c -6.1e-5,-1.28e-4 -2.52e-4,-1.85e-4 -3.13e-4,-3.13e-4 -0.199249,-0.419751 -0.397207,-0.83152 -0.593437,-1.234062 -6.3e-5,-1.28e-4 -2.5e-4,-1.85e-4 -3.13e-4,-3.13e-4 -0.09913,-0.203352 -0.196373,-0.397097 -0.294687,-0.595625 -0.09636,-0.19458 -0.193728,-0.394041 -0.289063,-0.58375 -4.2e-5,-8.5e-5 4.3e-5,-2.27e-4 0,-3.12e-4 -0.193026,-0.38335 -0.382239,-0.756992 -0.570674,-1.119024 C 95.3878,66.612532 95.200995,66.262344 95.017503,65.923976 94.83393,65.585457 94.652721,65.260149 94.47469,64.947414 94.296775,64.634879 94.121659,64.334427 93.949378,64.048976 93.777146,63.763606 93.609028,63.493692 93.44344,63.238351 93.277668,62.982724 93.114159,62.741879 92.955003,62.517726 92.649336,62.087214 92.353858,61.682298 92.06844,61.300851 91.783034,60.919419 91.507965,60.561386 91.240315,60.222726 90.97268,59.884082 90.713106,59.565586 90.46094,59.263664 90.208725,58.961678 89.963682,58.675599 89.72469,58.404289 89.485778,58.133065 89.253554,57.875958 89.025315,57.628976 88.797251,57.382182 88.572857,57.146473 88.35344,56.918039 c -0.438766,-0.456801 -0.861862,-0.883112 -1.279062,-1.302813 -0.06817,-0.06858 -0.14159,-0.14855 -0.21875,-0.238125 -0.077,-0.08939 -0.158169,-0.188663 -0.240313,-0.296875 -0.08217,-0.108246 -0.166355,-0.226447 -0.251875,-0.353437 -7.6e-5,-1.14e-4 -2.35e-4,-1.99e-4 -3.12e-4,-3.13e-4 -0.0855,-0.126966 -0.171267,-0.261676 -0.2575,-0.405937 -6.9e-5,-1.16e-4 -2.43e-4,-1.97e-4 -3.13e-4,-3.13e-4 -0.03759,-0.06289 -0.07523,-0.134383 -0.113125,-0.200937 -0.04898,-0.08605 -0.09831,-0.168315 -0.146562,-0.259688 -4.2e-5,-8e-5 4.2e-5,-2.33e-4 0,-3.12e-4 -0.08556,-0.162018 -0.169409,-0.33138 -0.251875,-0.509688 -0.08252,-0.178431 -0.16256,-0.365633 -0.240313,-0.560312 -3.5e-5,-8.9e-5 3.6e-5,-2.24e-4 0,-3.13e-4 -0.07519,-0.188273 -0.148278,-0.384331 -0.217187,-0.586875 -0.0023,-0.0069 -0.0049,-0.01342 -0.0072,-0.02031 -0.0022,-0.0065 -0.0041,-0.01322 -0.0062,-0.01969 -0.06854,-0.204184 -0.132495,-0.414113 -0.193125,-0.632812 -0.06248,-0.225394 -0.121653,-0.458966 -0.17375,-0.699063 -0.02597,-0.119682 -0.04902,-0.241313 -0.07219,-0.365312 -0.0231,-0.123613 -0.04476,-0.249669 -0.06469,-0.376875 -0.02005,-0.127925 -0.04011,-0.256911 -0.05656,-0.386875 -0.01654,-0.130707 -0.0299,-0.262127 -0.04281,-0.39625 -0.01286,-0.133659 -0.02437,-0.270461 -0.03344,-0.408438 -0.0075,-0.113972 -0.01265,-0.232108 -0.0175,-0.353437 l -0.515625,-0.494063 -0.485938,0.341563 h -3.12e-4 c -3.9e-5,1.08e-4 3.9e-5,2.04e-4 0,3.12e-4 -0.02569,0.07206 -0.04782,0.134334 -0.06656,0.183438 -0.04494,0.117845 -0.09181,0.234644 -0.140625,0.3475 -3.7e-5,8.7e-5 3.8e-5,2.25e-4 0,3.12e-4 -0.0485,0.11211 -0.09794,0.220314 -0.150312,0.327813 -4.1e-5,8.4e-5 4.1e-5,2.27e-4 0,3.12e-4 -0.05233,0.107432 -0.106777,0.212808 -0.162188,0.314375 -0.05549,0.101705 -0.113029,0.200128 -0.171875,0.296875 -0.05894,0.09689 -0.118015,0.191865 -0.179687,0.283125 -0.06208,0.09186 -0.126737,0.179473 -0.19125,0.265625 -0.06443,0.08604 -0.12954,0.169822 -0.1975,0.251875 -0.06783,0.0819 -0.136861,0.161916 -0.206875,0.238438 -0.07032,0.07685 -0.142185,0.152298 -0.215,0.224375 -0.07266,0.07193 -0.146962,0.14135 -0.2225,0.209062 -0.07538,0.06757 -0.150767,0.132309 -0.228438,0.195313 -0.07722,0.06264 -0.157069,0.123275 -0.236562,0.181562 -0.07948,0.05828 -0.159031,0.114565 -0.24,0.168125 -0.08104,0.0536 -0.163448,0.105105 -0.24625,0.154375 -0.08291,0.04933 -0.165846,0.09575 -0.25,0.140625 -0.08384,0.04471 -0.169824,0.0878 -0.255938,0.12875 -0.08615,0.04096 -0.171386,0.07891 -0.257812,0.115313 -0.08671,0.03653 -0.175406,0.07085 -0.263438,0.103437 -0.08792,0.03255 -0.176535,0.0632 -0.265625,0.09188 -0.08894,0.02864 -0.177997,0.05521 -0.267812,0.08 -0.09031,0.02492 -0.179721,0.04951 -0.269375,0.07031 -0.08991,0.02087 -0.182049,0.03918 -0.273438,0.05656 -0.09059,0.01723 -0.181898,0.03317 -0.273437,0.04687 -0.09203,0.01378 -0.182888,0.02527 -0.273438,0.03531 -0.09118,0.0101 -0.181901,0.01863 -0.273437,0.02531 -0.09149,0.0066 -0.182335,0.01046 -0.273438,0.01375 -0.09151,0.0033 -0.18295,0.0059 -0.273437,0.0059 h -26.23625 c -0.120468,0 -0.239227,-0.002 -0.3575,-0.0059 -0.118559,-0.0038 -0.234816,-0.01006 -0.3475,-0.0175 -1.05e-4,-7e-6 -2.07e-4,7e-6 -3.13e-4,0 -0.113744,-0.0075 -0.225603,-0.01643 -0.335625,-0.0275 -1.03e-4,-10e-6 -2.08e-4,1.1e-5 -3.12e-4,0 -0.109434,-0.01102 -0.217098,-0.02439 -0.324063,-0.03906 -0.107237,-0.01471 -0.210756,-0.03091 -0.3125,-0.04875 -0.102545,-0.01798 -0.203703,-0.03742 -0.302812,-0.05875 -0.09833,-0.02117 -0.194932,-0.04341 -0.290938,-0.06812 -0.09518,-0.02449 -0.189315,-0.0504 -0.28125,-0.07813 -0.09256,-0.02792 -0.182273,-0.05768 -0.269687,-0.08813 -0.08738,-0.03043 -0.174234,-0.06352 -0.259688,-0.0975 -0.08544,-0.03398 -0.167385,-0.06724 -0.247812,-0.103438 -8.6e-5,-3.8e-5 -2.27e-4,3.9e-5 -3.13e-4,0 -0.08052,-0.03624 -0.159662,-0.07563 -0.238125,-0.115312 -0.07775,-0.03933 -0.154022,-0.07918 -0.228437,-0.12125 -0.07477,-0.04227 -0.148032,-0.08614 -0.21875,-0.130625 -0.07114,-0.04475 -0.141285,-0.09147 -0.209063,-0.13875 -0.06837,-0.0477 -0.133121,-0.09526 -0.197187,-0.144688 -0.05616,-0.04334 -0.111839,-0.08913 -0.166563,-0.135312 -0.0075,-0.0064 -0.01533,-0.01237 -0.02281,-0.01875 -6e-5,-5.2e-5 -2.52e-4,5.1e-5 -3.13e-4,0 -0.05414,-0.04612 -0.106875,-0.09227 -0.158125,-0.139375 -0.0069,-0.0063 -0.01444,-0.01235 -0.02125,-0.01875 -1.07e-4,-1.01e-4 -2.05e-4,-2.12e-4 -3.12e-4,-3.13e-4 -0.05754,-0.05405 -0.113051,-0.109269 -0.167813,-0.165937 -0.05524,-0.05715 -0.107606,-0.114289 -0.158125,-0.171875 -0.05098,-0.05812 -0.100183,-0.119064 -0.148437,-0.179688 -0.04775,-0.05999 -0.0955,-0.120881 -0.140625,-0.183437 -0.04477,-0.06206 -0.08718,-0.125191 -0.129063,-0.189375 -4.8e-5,-7.5e-5 4.9e-5,-2.39e-4 0,-3.13e-4 -0.04171,-0.06391 -0.08218,-0.127306 -0.120937,-0.193125 -0.03877,-0.06585 -0.07568,-0.134057 -0.11125,-0.20125 -0.03601,-0.06802 -0.07138,-0.134821 -0.10375,-0.203125 -0.03226,-0.06808 -0.06149,-0.137753 -0.09156,-0.209062 -0.02983,-0.07075 -0.05931,-0.143178 -0.08594,-0.214688 -0.02659,-0.07142 -0.05042,-0.143303 -0.07438,-0.216875 -0.02405,-0.07387 -0.04773,-0.147 -0.06844,-0.220625 -0.02085,-0.07414 -0.04033,-0.148863 -0.05844,-0.224687 -0.01798,-0.07524 -0.03354,-0.151701 -0.04875,-0.228438 -0.01257,-0.06341 -0.03155,-0.160523 -0.04687,-0.238437 h -3.13e-4 l -1.02125,0.08406 c -0.0012,0.03965 -0.0016,0.06767 -0.0022,0.08375 -0.0049,0.140659 -0.01219,0.280527 -0.02125,0.418125 -0.009,0.137245 -0.0205,0.273699 -0.03344,0.408125 -0.01291,0.134156 -0.02628,0.265936 -0.04281,0.396563 -0.01655,0.130744 -0.03476,0.259428 -0.05469,0.386562 -1.5e-5,1.01e-4 1.6e-5,2.12e-4 0,3.13e-4 -0.01994,0.127206 -0.04127,0.253262 -0.06437,0.376875 -0.02304,0.123249 -0.04824,0.244534 -0.07438,0.365 -2.1e-5,9.9e-5 2.2e-5,2.13e-4 0,3.12e-4 -0.05207,0.239982 -0.11129,0.47376 -0.17375,0.699063 -0.06251,0.225502 -0.128384,0.442071 -0.199375,0.652187 -0.07106,0.210322 -0.146684,0.412979 -0.224375,0.6075 -3.5e-5,8.9e-5 3.6e-5,2.24e-4 0,3.13e-4 -0.07764,0.194413 -0.157681,0.381647 -0.240312,0.560312 -0.08266,0.178741 -0.166551,0.348121 -0.251875,0.509688 -4.2e-5,7.9e-5 4.2e-5,2.33e-4 0,3.12e-4 -0.08536,0.161626 -0.173536,0.315959 -0.26,0.460625 -0.08641,0.144577 -0.172327,0.27931 -0.257813,0.40625 -0.08553,0.126996 -0.169705,0.24519 -0.251875,0.353438 -4.8e-5,6.3e-5 4.9e-5,2.49e-4 0,3.12e-4 -0.08235,0.108478 -0.161517,0.20763 -0.238125,0.296563 -4.9e-5,5.7e-5 5e-5,2.55e-4 0,3.12e-4 -0.01014,0.01177 -0.0193,0.02011 -0.02938,0.03156 -0.06585,0.07445 -0.13134,0.144419 -0.19125,0.204687 v 0.0016 l -3.12e-4,3.12e-4 c -0.02172,0.02185 -0.04481,0.04593 -0.06656,0.06781 -0.384073,0.386429 -0.773642,0.779421 -1.175937,1.1975 -0.01261,0.0131 -0.02424,0.02435 -0.03688,0.0375 -0.21926,0.228266 -0.443652,0.46398 -0.671875,0.710937 -0.228101,0.246827 -0.460021,0.503948 -0.699063,0.775313 -5.3e-5,6e-5 5.4e-5,2.52e-4 0,3.12e-4 -0.238949,0.271262 -0.484087,0.557145 -0.73625,0.859063 -5.2e-5,6.3e-5 5.3e-5,2.49e-4 0,3.12e-4 -0.0058,0.007 -0.01227,0.01517 -0.01812,0.02219 -0.24652,0.295522 -0.499969,0.60596 -0.76125,0.936562 -0.267651,0.338662 -0.542718,0.696693 -0.828125,1.078125 -0.277887,0.37138 -0.565728,0.765918 -0.862812,1.18375 -0.0083,0.01167 -0.01575,0.02142 -0.02406,0.03313 -0.0037,0.0052 -0.0076,0.01138 -0.01125,0.01656 -0.155735,0.219843 -0.315207,0.454763 -0.476875,0.704062 -0.142008,0.21898 -0.28688,0.453993 -0.433437,0.694688 -0.02451,0.04015 -0.04789,0.07516 -0.0725,0.115937 -0.172137,0.285212 -0.347267,0.585676 -0.525313,0.898438 -0.177955,0.312604 -0.359488,0.637925 -0.543125,0.976562 -0.18361,0.338587 -0.370092,0.688767 -0.558437,1.050625 -4.4e-5,8.4e-5 4.4e-5,2.29e-4 0,3.13e-4 -0.188394,0.361958 -0.377689,0.735444 -0.570313,1.11875 -4.2e-5,8.5e-5 4.3e-5,2.27e-4 0,3.12e-4 -0.192665,0.383391 -0.387808,0.776791 -0.584062,1.179375 -0.196293,0.402666 -0.394438,0.814505 -0.59375,1.234375 -0.199231,0.419703 -0.399904,0.848545 -0.601563,1.283438 -0.201635,0.434841 -0.404291,0.876615 -0.6075,1.324062 -0.01577,0.03473 -0.03172,0.07176 -0.0475,0.106563 -0.390792,0.861783 -0.783885,1.743292 -1.176875,2.639687 -0.408965,0.932839 -0.81865,1.878764 -1.224687,2.831875 -3.8e-5,8.9e-5 3.8e-5,2.24e-4 0,3.13e-4 -0.405994,0.953013 -0.809658,1.913254 -1.207188,2.86875 -0.298682,0.717917 -0.592202,1.431564 -0.882812,2.140625 -0.290599,0.709035 -0.577004,1.413066 -0.857188,2.105625 -0.560357,1.385096 -1.097038,2.728702 -1.601562,4.001875 -3.4e-5,8.5e-5 3.4e-5,2.26e-4 0,3.12e-4 -0.504538,1.273203 -0.976384,2.475874 -1.40625,3.575938 -0.429867,1.100065 -0.818071,2.097231 -1.154375,2.962812 -3.1e-5,7.9e-5 3.1e-5,2.33e-4 0,3.13e-4 -0.440132,1.132881 -0.791661,2.038948 -1.033125,2.64625 l -0.0022,0.0019 c -8.5e-5,2.01e-4 -2.9e-4,0.0029 0,0.0022 -0.02626,0.0529 -0.05289,0.107077 -0.08,0.164063 -0.02253,0.04751 -0.04036,0.08484 -0.06438,0.12875 -4.6e-5,8.5e-5 4.7e-5,2.27e-4 0,3.12e-4 -0.02437,0.04453 -0.05545,0.09723 -0.103437,0.167813 -0.04754,0.06991 -0.111847,0.158695 -0.20125,0.27125 -6.6e-5,8.3e-5 6.6e-5,2.29e-4 0,3.12e-4 -0.08632,0.108647 -0.198522,0.241046 -0.335938,0.398126 -0.200799,0.19825 -0.308447,0.30433 -0.365312,0.35938 -0.640599,0.33216 -1.60371,0.30852 -3.238125,-0.513443 -2.433831,-1.224122 -4.5301583,-4.58609 -5.6250001,-9.970938 -0.5408267,-2.660805 -0.8462012,-5.835563 -0.841875,-9.51375 v -0.0038 c -1.067e-4,-0.01483 9.88e-5,-0.03092 0,-0.04687 v -0.0041 c 9.19e-5,-0.0646 -2.602e-4,-0.122456 0,-0.1775 v -0.0041 C 8.0041874,76.421143 8.3411664,72.021971 9.1171904,67.062414 10.11213,60.70385 11.72181,54.632222 13.451253,49.359289 v -0.0019 c 2.356543,-7.30909 4.93261,-13.077716 6.429687,-15.9025 0.483652,-0.228759 0.997645,-0.443186 1.533125,-0.64625 0.144971,-0.05498 0.28286,-0.10915 0.420938,-0.159063 0.0081,-0.0029 0.01628,-0.0059 0.02437,-0.0087 0.0077,-0.0027 0.01545,-0.0054 0.02313,-0.0081 0.213297,-0.07599 0.430485,-0.149281 0.649687,-0.22125 0.01278,-0.0042 0.02533,-0.0086 0.03813,-0.01281 0.01354,-0.0044 0.02737,-0.0087 0.04094,-0.01312 0.222422,-0.07239 0.447413,-0.14273 0.675625,-0.21125 0.0047,-0.0014 0.0091,-0.003 0.01375,-0.0044 0.0049,-0.0015 0.01005,-0.0029 0.015,-0.0044 0.226197,-0.0677 0.455064,-0.133261 0.68625,-0.197188 0.0157,-0.0043 0.03115,-0.0088 0.04687,-0.01312 0.01852,-0.0051 0.03738,-0.0099 0.05594,-0.015 0.234497,-0.06401 0.471391,-0.126084 0.709688,-0.18625 0.237992,-0.06009 0.47783,-0.11909 0.719375,-0.175625 0.01943,-0.0045 0.03867,-0.0092 0.05813,-0.01375 0.01964,-0.0046 0.03941,-0.0089 0.05906,-0.01344 0.242327,-0.05583 0.486745,-0.1103 0.731875,-0.1625 0.245302,-0.05224 0.491816,-0.101472 0.739063,-0.15 0.0199,-0.0039 0.0398,-0.008 0.05969,-0.01187 0.02236,-0.0044 0.04482,-0.0085 0.06719,-0.01281 0.245045,-0.04752 0.490147,-0.09345 0.7375,-0.137812 0.269667,-0.04837 0.539845,-0.09613 0.810625,-0.140625 0.270853,-0.04452 0.54299,-0.08607 0.814375,-0.126875 0.267157,-0.04017 0.534885,-0.07857 0.802187,-0.115313 0.0041,-5.59e-4 0.0081,-0.0013 0.01219,-0.0019 0.0016,-2.15e-4 0.0031,-4.09e-4 0.0047,-6.25e-4 0.540871,-0.07421 1.080951,-0.141778 1.616563,-0.2025 0.538425,-0.06103 1.072484,-0.115442 1.601562,-0.164062 0.515174,-0.04734 1.024046,-0.08911 1.525,-0.125625 0.01381,-0.001 0.02777,-0.0021 0.04156,-0.0031 0.01665,-0.0012 0.03306,-0.0023 0.04969,-0.0034 0.366501,-0.02617 0.725777,-0.04775 1.08375,-0.06844 0.03544,-0.002 0.07114,-0.0042 0.106563,-0.0063 0.009,-5.16e-4 0.01847,-0.0016 0.0275,-0.0022 1.572408,-0.08982 3.035604,-0.12995 4.292812,-0.134687 h 0.0022 c 0.09748,-3.79e-4 0.184626,-6e-5 0.289062,0 h 0.0038 c 0.849126,-0.0044 1.61434,0.006 2.259688,0.02719 -0.005,-1.64e-4 -0.01664,-0.0076 -0.0175,-0.01156 l 0.728437,0.353437 c 0.221863,-0.106962 0.452792,-0.203095 0.695313,-0.289062 0.66879,-0.237023 1.452267,-0.424414 2.285312,-0.61125 4.321896,-0.968932 13.140978,-1.470938 17.9725,-1.470938 z m 18.636875,22.46125 c 0.01226,0.07171 0.02398,0.144024 0.03719,0.214688 0.02487,0.133133 0.05177,0.264298 0.08,0.394375 2.1e-5,9.9e-5 -2.2e-5,2.13e-4 0,3.12e-4 0.02813,0.12961 0.05757,0.257496 0.08844,0.383438 2.4e-5,9.7e-5 -2.3e-5,2.15e-4 0,3.12e-4 0.03087,0.125937 0.0634,0.249982 0.09719,0.371875 2.7e-5,9.6e-5 -2.7e-5,2.17e-4 0,3.13e-4 0.03378,0.121835 0.06905,0.241405 0.105625,0.359062 2.9e-5,9.4e-5 -2.9e-5,2.18e-4 0,3.13e-4 0.03657,0.117652 0.07461,0.23319 0.113125,0.347187 3.1e-5,9.3e-5 -3.1e-5,2.2e-4 0,3.13e-4 0.07709,0.22816 0.157737,0.448525 0.242187,0.66 3.6e-5,8.9e-5 -3.5e-5,2.23e-4 0,3.12e-4 0.0845,0.21157 0.173279,0.41598 0.263438,0.610938 3.9e-5,8.4e-5 -3.9e-5,2.27e-4 0,3.12e-4 0.09026,0.195153 0.181802,0.38077 0.275625,0.558438 0.09375,0.177516 0.188962,0.347124 0.285,0.507812 0.09597,0.160576 0.193229,0.312695 0.289062,0.455 4.7e-5,7e-5 -4.6e-5,2.43e-4 0,3.13e-4 0.09584,0.142308 0.190752,0.275432 0.285313,0.4 4.9e-5,6.4e-5 -4.9e-5,2.48e-4 0,3.12e-4 0.09463,0.124666 0.187686,0.239553 0.279062,0.345625 0.09121,0.105888 0.181662,0.202382 0.269688,0.290938 l 0.0019,0.0019 c 0.0046,0.0047 0.0094,0.0097 0.01406,0.01438 l -0.01594,-0.01406 c 0.06977,0.07018 0.140384,0.141515 0.210312,0.211875 0.335004,0.337499 0.670054,0.675672 1.015,1.034063 0.01418,0.01473 0.02798,0.02834 0.04219,0.04312 0.215443,0.224297 0.435094,0.455839 0.658125,0.697187 0.22286,0.24116 0.450379,0.492881 0.68375,0.757813 0.233296,0.264843 0.47067,0.543024 0.716875,0.837812 0.246258,0.29485 0.499691,0.606149 0.761562,0.9375 0.256297,0.324293 0.521534,0.668605 0.795313,1.034063 0.0058,0.0078 0.01134,0.01499 0.01719,0.02281 0.0056,0.0074 0.0113,0.01566 0.01688,0.02313 0.269395,0.360387 0.548361,0.741899 0.836875,1.147813 0.0059,0.0084 0.01156,0.016 0.0175,0.02437 0.0031,0.0043 0.0063,0.0091 0.0094,0.01344 0.14366,0.202733 0.291561,0.421347 0.44375,0.655625 0.0033,0.0051 0.0064,0.009 0.0097,0.01406 4.9e-5,7.5e-5 -4.9e-5,2.37e-4 0,3.12e-4 0.159042,0.245249 0.323405,0.506575 0.490312,0.783125 0.166858,0.276465 0.337214,0.568732 0.511563,0.875 0.174237,0.306072 0.350813,0.626326 0.53125,0.959063 0.180518,0.332882 0.365022,0.678116 0.550937,1.035312 0.185894,0.357154 0.373737,0.725645 0.564375,1.105 4.3e-5,8.5e-5 -4.2e-5,2.28e-4 0,3.13e-4 0.190695,0.379469 0.383526,0.770803 0.578125,1.17 0.194653,0.399305 0.391846,0.807904 0.589688,1.224687 0.197794,0.416684 0.397365,0.841151 0.597812,1.273438 0.20035,0.432074 0.401141,0.871232 0.603438,1.31625 0.0051,0.01133 0.01048,0.02303 0.01563,0.03438 0.39414,0.868335 0.79056,1.759591 1.1875,2.664687 0.0052,0.01189 0.01041,0.0231 0.01563,0.035 3.8e-5,8.8e-5 -3.9e-5,2.25e-4 0,3.13e-4 0.407381,0.929253 0.815911,1.87212 1.220623,2.822187 0.40475,0.950105 0.80657,1.906186 1.20312,2.859375 0.29796,0.716045 0.59279,1.430841 0.88282,2.138438 3e-5,8.8e-5 -4e-5,2.24e-4 0,3.12e-4 0.28997,0.707409 0.57413,1.408236 0.85375,2.099375 3e-5,8.8e-5 -4e-5,2.24e-4 0,3.13e-4 0.55928,1.382437 1.09562,2.724625 1.59937,3.995937 0.50375,1.271327 0.97501,2.471377 1.40438,3.570313 0.42936,1.098934 0.81811,2.097209 1.15437,2.962812 3e-5,7.9e-5 -3e-5,2.33e-4 0,3.13e-4 0.44099,1.134463 0.79285,2.041487 1.03719,2.655937 v -0.0038 c 0.005,0.01229 0.0147,0.03817 0.0331,0.07594 7e-5,1.33e-4 -6e-5,1.79e-4 0,3.12e-4 l 0.002,0.0056 v 3.13e-4 c 0.0188,0.03739 0.0434,0.08856 0.0725,0.148125 5e-5,1.01e-4 -5e-5,2.11e-4 0,3.12e-4 0.0222,0.04682 0.0505,0.104569 0.0878,0.173438 5e-5,9.8e-5 -5e-5,2.13e-4 0,3.12e-4 v 0.0019 c 0.0376,0.06928 0.0847,0.149138 0.14656,0.242186 0.062,0.0932 0.13855,0.19778 0.23438,0.32219 0.0418,0.0543 0.10562,0.12892 0.15594,0.19125 l -2.38844,0.40625 c 0.002,-2.3e-4 -0.005,1.1e-4 -0.004,0 -0.005,7.1e-4 -0.012,10e-4 -0.0194,0.002 v 9.4e-4 c -0.99421,0.12326 -1.78837,0.018 -2.45125,-0.25656 -0.66347,-0.27433 -1.17589,-0.711916 -1.60531,-1.255936 h -0.002 c -0.70511,-0.891895 -1.19834,-2.13679 -1.65812,-3.322187 v -0.0022 c -0.0854,-0.222156 -0.17138,-0.441849 -0.25594,-0.654375 -0.905109,-2.262248 -1.531673,-4.075131 -2.164061,-5.91 -0.06647,-0.192805 -0.13242,-0.384894 -0.199062,-0.578125 v -0.0019 c -0.351763,-1.018355 -0.715445,-2.059496 -1.13875,-3.201562 -3.2e-5,-8.7e-5 3.2e-5,-2.26e-4 0,-3.13e-4 -0.207723,-0.560427 -0.43021,-1.146035 -0.6725,-1.764375 -0.0046,-0.01163 -0.0086,-0.0224 -0.01312,-0.03406 h -3.13e-4 c -0.247712,-0.631493 -0.516376,-1.298262 -0.812187,-2.009688 -1.002014,-2.409977 -2.506296,-4.288045 -4.4375,-5.390625 -1.922183,-1.097417 -4.303762,-1.430335 -7.019375,-0.745937 H 43.88094 c -0.0017,-3.34e-4 -0.0033,0 -0.0041,0 -3.429587,-0.683923 -5.804881,-0.09595 -7.450938,0.911875 -1.665916,1.01987 -2.638179,2.469383 -3.341875,3.53125 -0.271821,0.410215 -0.58532,1.112325 -1.015625,2.148437 -0.423233,1.019101 -0.919686,2.289869 -1.465,3.691563 l -0.0975,0.25 c -1.066801,2.742305 -2.309241,5.940492 -3.519687,8.603437 -0.146695,0.322709 -0.287722,0.633267 -0.421875,0.931563 -0.70478,1.567658 -1.264511,2.795898 -1.837813,3.599687 -0.351069,0.492264 -0.718967,0.856391 -1.16,1.099691 v -0.002 c -0.442999,0.24383 -0.940424,0.36096 -1.564687,0.36125 l -2.919688,-0.39437 c 0.04774,-0.0572 0.109996,-0.12738 0.150313,-0.17813 v -0.002 c 0.101588,-0.1279 0.180653,-0.23541 0.24625,-0.33188 0.06514,-0.09582 0.116341,-0.179261 0.15625,-0.252186 0.04025,-0.07357 0.06784,-0.135486 0.08969,-0.181562 0.02724,-0.05726 0.05131,-0.108289 0.07219,-0.150313 v 0.0038 c 0.0146,-0.02896 0.02586,-0.0563 0.03531,-0.08 0.244505,-0.614884 0.596399,-1.521678 1.037188,-2.65625 0.336295,-0.865561 0.724631,-1.863856 1.154062,-2.962812 3.3e-5,-8.4e-5 -3.2e-5,-2.3e-4 0,-3.13e-4 0.429403,-1.098878 0.900648,-2.298837 1.404375,-3.57 3.4e-5,-8.6e-5 -3.4e-5,-2.27e-4 0,-3.12e-4 0.503754,-1.271226 1.040459,-2.613633 1.599688,-3.995938 0.27963,-0.69119 0.563466,-1.391865 0.853437,-2.099375 3.7e-5,-8.8e-5 -3.6e-5,-2.24e-4 0,-3.12e-4 0.289966,-0.707488 0.584877,-1.420441 0.882813,-2.136563 0.396577,-0.953206 0.798374,-1.909284 1.203125,-2.859375 0.404746,-0.950082 0.813235,-1.894823 1.220625,-2.824062 3.8e-5,-8.8e-5 -3.9e-5,-2.25e-4 0,-3.13e-4 0.0053,-0.0122 0.01059,-0.02374 0.01594,-0.03594 0.396669,-0.904436 0.793052,-1.794863 1.186875,-2.6625 0.0053,-0.01162 0.01067,-0.02402 0.01594,-0.03563 4e-5,-8.8e-5 -4e-5,-2.26e-4 0,-3.13e-4 0.202184,-0.445191 0.403437,-0.884265 0.60375,-1.31625 0.200328,-0.432021 0.399573,-0.856481 0.5975,-1.273437 0.197848,-0.416789 0.395347,-0.825386 0.59,-1.224688 0.194651,-0.399296 0.387481,-0.790325 0.578125,-1.169687 0.190683,-0.379445 0.37844,-0.748398 0.564375,-1.105625 0.186028,-0.357407 0.370226,-0.702334 0.550625,-1.035 4.5e-5,-8.3e-5 -4.5e-5,-2.3e-4 0,-3.13e-4 0.180329,-0.332536 0.356982,-0.652617 0.53125,-0.95875 4.6e-5,-8.1e-5 -4.6e-5,-2.31e-4 0,-3.12e-4 0.174172,-0.305952 0.344917,-0.598057 0.511875,-0.874688 0.166996,-0.276695 0.331378,-0.538042 0.490312,-0.783125 0.0077,-0.01188 0.01513,-0.02258 0.02281,-0.03438 0.146078,-0.224318 0.288354,-0.434922 0.42625,-0.629687 0.0045,-0.0063 0.0093,-0.01337 0.01375,-0.01969 0.0078,-0.01094 0.01506,-0.02097 0.02281,-0.03187 0.29229,-0.411082 0.575462,-0.799036 0.848125,-1.163437 0.274236,-0.366504 0.538613,-0.709523 0.795313,-1.034688 0.0055,-0.0069 0.01172,-0.01496 0.01719,-0.02188 5.2e-5,-6.5e-5 -5.1e-5,-2.47e-4 0,-3.12e-4 0.0067,-0.0085 0.01269,-0.01561 0.01937,-0.02406 0.241167,-0.304903 0.473178,-0.593048 0.700938,-0.866875 0.01305,-0.0157 0.02666,-0.03253 0.03969,-0.04812 0.07611,-0.09112 0.147382,-0.171006 0.222188,-0.259062 0.167087,-0.196103 0.335173,-0.39433 0.49625,-0.577188 0.19371,-0.219904 0.381353,-0.425979 0.567812,-0.629375 0.03801,-0.04146 0.07818,-0.08727 0.115938,-0.128125 5.3e-5,-5.7e-5 -5.3e-5,-2.55e-4 0,-3.12e-4 0.222887,-0.241184 0.442516,-0.472722 0.658125,-0.697188 0.430402,-0.448074 0.849095,-0.870061 1.265625,-1.289062 l 0.0022,-0.0019 c 0.08707,-0.08759 0.177407,-0.184177 0.269375,-0.290938 5.1e-5,-5.8e-5 -5e-5,-2.54e-4 0,-3.12e-4 0.09167,-0.106426 0.185061,-0.223258 0.279375,-0.3475 0.09461,-0.124631 0.189421,-0.257926 0.285313,-0.400313 0.09593,-0.142447 0.193192,-0.292718 0.289062,-0.453125 0.09578,-0.160246 0.191022,-0.329852 0.285,-0.507812 0.09406,-0.178115 0.185257,-0.363717 0.275313,-0.558438 3.9e-5,-8.5e-5 -3.9e-5,-2.28e-4 0,-3.12e-4 0.09005,-0.194724 0.179149,-0.399413 0.26375,-0.61125 0.0846,-0.211817 0.165164,-0.432012 0.242187,-0.66 0.03855,-0.114097 0.07621,-0.230063 0.112813,-0.347813 0.0366,-0.11775 0.07214,-0.237441 0.105937,-0.359375 0.06764,-0.243976 0.129336,-0.496189 0.185625,-0.755625 0.02346,-0.108126 0.04485,-0.218996 0.06625,-0.330312 0.01366,0.02393 0.02697,0.04846 0.04094,0.07219 7.1e-5,1.21e-4 2.41e-4,1.91e-4 3.12e-4,3.13e-4 0.04654,0.07903 0.09391,0.156737 0.144375,0.234062 4.9e-5,7.5e-5 -4.8e-5,2.38e-4 0,3.13e-4 0.05033,0.07711 0.103723,0.152711 0.158125,0.228125 5.1e-5,6.9e-5 -5e-5,2.42e-4 0,3.12e-4 0.02324,0.03221 0.04833,0.0637 0.07219,0.09562 0.03163,0.04232 0.0623,0.08501 0.09562,0.126875 0.03157,0.03966 0.06591,0.07845 0.09906,0.117813 0.02776,0.03296 0.05438,0.06634 0.08281,0.09875 5.3e-5,6e-5 -5.3e-5,2.52e-4 0,3.12e-4 0.05751,0.06555 0.115859,0.129075 0.175312,0.19125 0.0054,0.0057 0.01048,0.01185 0.01594,0.0175 0.06579,0.06808 0.134739,0.135255 0.205,0.20125 1.08e-4,1.02e-4 2.04e-4,2.11e-4 3.12e-4,3.13e-4 0.07027,0.066 0.141075,0.130417 0.214688,0.193125 0.07321,0.06236 0.149853,0.122802 0.228437,0.183437 1.18e-4,9.1e-5 1.95e-4,2.22e-4 3.13e-4,3.13e-4 0.07827,0.06039 0.157368,0.119282 0.238125,0.175625 0.08135,0.05674 0.1652,0.110716 0.25,0.164062 0.08522,0.05361 0.171696,0.106502 0.259687,0.15625 0.08835,0.04995 0.177507,0.0979 0.269375,0.144375 1.27e-4,6.4e-5 1.86e-4,2.48e-4 3.13e-4,3.13e-4 0.09104,0.04603 0.185113,0.08937 0.280937,0.1325 1.29e-4,5.7e-5 1.85e-4,2.54e-4 3.13e-4,3.12e-4 0.09606,0.04323 0.193001,0.08418 0.290937,0.123125 0.0978,0.03889 0.197867,0.07702 0.300625,0.112813 1.29e-4,4.4e-5 1.84e-4,2.67e-4 3.13e-4,3.12e-4 0.102882,0.03582 0.205658,0.07 0.310312,0.101563 0.105288,0.03175 0.213509,0.06196 0.3225,0.09 0.108168,0.02783 0.219056,0.05382 0.331875,0.07813 0.112048,0.02412 0.224411,0.04598 0.34,0.06625 0.1164,0.0204 0.233644,0.03852 0.351563,0.05469 0.118185,0.01621 0.240356,0.03077 0.363125,0.04313 0.122088,0.01228 0.245866,0.02297 0.37125,0.03125 0.126566,0.0084 0.252856,0.01335 0.380625,0.0175 0.128053,0.0042 0.257669,0.0059 0.390625,0.0059 H 77.14094 c 0.103308,0 0.20698,-3.56e-4 0.310313,-0.0041 0.103708,-0.0037 0.2067,-0.0099 0.310625,-0.0175 0.103886,-0.0076 0.207978,-0.01779 0.3125,-0.02938 0.105161,-0.01165 0.210798,-0.02542 0.314375,-0.04094 0.104099,-0.01559 0.207883,-0.03292 0.3125,-0.05281 0.103822,-0.01974 0.207944,-0.04198 0.3125,-0.06625 0.104704,-0.0243 0.209553,-0.04971 0.3125,-0.07813 0.103539,-0.02857 0.205794,-0.0606 0.30875,-0.09375 0.102816,-0.0331 0.206241,-0.0678 0.308437,-0.105625 0.10199,-0.03776 0.203506,-0.0783 0.304688,-0.120937 0.101465,-0.04274 0.201367,-0.08781 0.300625,-0.135 0.09938,-0.04726 0.198062,-0.09762 0.296875,-0.150313 0.09851,-0.05253 0.196533,-0.106592 0.293125,-0.164062 0.09669,-0.05754 0.192251,-0.118768 0.287187,-0.181563 0.09501,-0.06285 0.188617,-0.127392 0.28125,-0.195312 0.09263,-0.06792 0.184619,-0.139251 0.275313,-0.212813 0.09081,-0.07366 0.181495,-0.14998 0.269375,-0.22875 0.08779,-0.07869 0.174846,-0.15977 0.26,-0.244062 0.08502,-0.08416 0.168288,-0.170387 0.25,-0.259688 5.3e-5,-5.8e-5 -5.3e-5,-2.55e-4 0,-3.12e-4 0.08197,-0.0896 0.162233,-0.18291 0.240312,-0.277188 0.07801,-0.09418 0.15327,-0.19056 0.228438,-0.290937 0.07509,-0.100278 0.147872,-0.203561 0.21875,-0.308438 4.9e-5,-7.2e-5 -4.9e-5,-2.4e-4 0,-3.12e-4 0.06209,-0.09188 0.122694,-0.185432 0.181562,-0.280938 z m 2.720625,5.910938 0.03906,0.03438 v 6.25e-4 z"
       transform="translate(-2.9322322e-6,-0.00741362)"
       inkscape:label="Outline" /><g
       id="g1333"
       inkscape:label="DualSense"
       style="display:inline"><g
         id="g1281"
         inkscape:label="Body"><path
           id="path1277"
           style="display:inline;fill:#ffffff;fill-opacity:1;stroke:none;stroke-width:3.2;stroke-linejoin:bevel;stroke-dasharray:none;stroke-opacity:1;paint-order:stroke markers fill"
           class="UnoptimicedTransforms"
           d="m 95.692503,26.505851 c 0.0098,2.53e-4 0.01959,3.55e-4 0.02938,6.25e-4 -0.0098,-2.7e-4 -0.01958,-3.72e-4 -0.02938,-6.25e-4 z m 1.370937,0.09219 c 0.01219,0.0013 0.02438,0.0024 0.03656,0.0038 -0.01218,-0.0013 -0.02438,-0.0024 -0.03656,-0.0038 z m 1.329063,0.193437 c 0.01469,0.0027 0.02939,0.0054 0.04406,0.0081 -0.01469,-0.0027 -0.02935,-0.0054 -0.04406,-0.0081 z m 1.265937,0.275938 c 0.02326,0.0059 0.0465,0.01188 0.06969,0.01781 -0.02322,-0.0059 -0.0464,-0.01194 -0.06969,-0.01781 z m -34.664062,0.395625 c -4.866165,0 -13.656853,0.489919 -18.085625,1.482812 -0.836893,0.1877 -1.636963,0.377213 -2.344063,0.627813 -0.2594,0.09195 -0.50879,0.195552 -0.748125,0.310937 -0.04851,-0.220737 -0.239377,-0.385239 -0.47,-0.392812 -0.653451,-0.02141 -1.424992,-0.03128 -2.279687,-0.02688 -0.100215,-5.7e-5 -0.189579,-0.0013 -0.2925,-9.38e-4 -1.266956,0.0048 -2.738983,0.04621 -4.320625,0.136563 -0.41936,0.02394 -0.842261,0.04924 -1.275938,0.08062 -0.517268,0.03743 -1.043714,0.08044 -1.57625,0.129375 -0.532533,0.04894 -1.07119,0.103852 -1.613437,0.165312 -0.541037,0.06134 -1.086192,0.129345 -1.632813,0.204375 -0.273308,0.03751 -0.546988,0.07667 -0.820625,0.117813 -0.273634,0.04114 -0.547375,0.08415 -0.820625,0.129062 -0.273247,0.0449 -0.546287,0.09182 -0.818437,0.140625 -0.272149,0.04881 -0.543414,0.09934 -0.81375,0.152188 -0.270335,0.05285 -0.539691,0.10797 -0.8075,0.165 -0.267808,0.05703 -0.534181,0.11616 -0.79875,0.1775 -0.264568,0.06134 -0.527198,0.124825 -0.787813,0.190625 -0.260612,0.0658 -0.519052,0.133985 -0.775,0.204375 -0.255945,0.07039 -0.509432,0.143005 -0.76,0.218125 -0.250565,0.07512 -0.498337,0.15251 -0.742812,0.2325 -0.244474,0.07999 -0.48577,0.16251 -0.723438,0.2475 -0.154283,0.05517 -0.304456,0.113295 -0.455625,0.170625 -0.547438,0.2076 -1.076539,0.427664 -1.577187,0.664687 -0.0975,0.0461 -0.177313,0.1223 -0.227813,0.2175 -1.518152,2.863726 -4.098713,8.649062 -6.465625,15.990313 -1.736458,5.294322 -3.3528058,11.391744 -4.3531246,17.784687 -0.7796989,4.983043 -1.1193627,9.40747 -1.1059375,13.27375 -2.925e-4,0.06187 4.326e-4,0.122153 3.125e-4,0.18375 1.078e-4,0.01687 1.912e-4,0.03378 3.125e-4,0.05063 -0.00436,3.706931 0.3015372,6.91501 0.8509375,9.617188 1.1118412,5.468457 3.2403366,8.991511 5.9003126,10.329379 1.723984,0.867 2.900183,0.95575 3.741875,0.50375 0.0075,-0.004 0.01504,-0.008 0.469687,-0.45688 0.148912,-0.16975 0.267323,-0.31168 0.362813,-0.43187 0.09549,-0.120223 0.168117,-0.218679 0.224687,-0.301879 0.05656,-0.0832 0.09724,-0.150958 0.129375,-0.209688 0.03213,-0.05873 0.05561,-0.108512 0.07781,-0.155312 0.0273,-0.0574 0.05255,-0.110425 0.07625,-0.158125 0.0062,-0.0123 0.01178,-0.02501 0.01687,-0.03781 0.243,-0.611098 0.595452,-1.518531 1.03625,-2.653125 0.3363,-0.865573 0.7241,-1.863613 1.15375,-2.963125 0.429651,-1.099514 0.901158,-2.300575 1.405312,-3.572812 0.504155,-1.272239 1.040813,-2.615627 1.600625,-3.999375 0.279907,-0.691876 0.565652,-1.393915 0.855938,-2.102188 0.290288,-0.708275 0.585127,-1.422666 0.883437,-2.139687 0.397073,-0.954396 0.799609,-1.911842 1.205,-2.863438 0.405392,-0.951598 0.813697,-1.897397 1.221875,-2.828437 0.408179,-0.93104 0.816441,-1.847586 1.221875,-2.740313 0.202717,-0.446364 0.404632,-0.886856 0.605625,-1.320312 0.200994,-0.433458 0.401109,-0.859796 0.599688,-1.278125 0.19858,-0.418331 0.395777,-0.828393 0.59125,-1.229375 0.195474,-0.400984 0.389263,-0.792959 0.580937,-1.174375 0.191675,-0.381418 0.381252,-0.752557 0.568438,-1.112188 0.187187,-0.359633 0.371745,-0.707811 0.55375,-1.043437 0.182006,-0.335628 0.361367,-0.658409 0.5375,-0.967813 0.176134,-0.309402 0.34918,-0.605292 0.51875,-0.88625 0.16957,-0.28096 0.33581,-0.547206 0.498125,-0.7975 0.162315,-0.250296 0.320632,-0.484777 0.475,-0.702187 0.303262,-0.427125 0.595667,-0.82803 0.878437,-1.205938 0.282771,-0.37791 0.555872,-0.732817 0.820625,-1.067812 0.264755,-0.334997 0.521101,-0.650053 0.770313,-0.948438 0.249214,-0.298387 0.491355,-0.580049 0.7275,-0.848125 0.236147,-0.268078 0.466322,-0.522493 0.691875,-0.766562 0.225555,-0.244071 0.446627,-0.477696 0.664062,-0.704063 0.434872,-0.452729 0.855877,-0.876527 1.273125,-1.29625 l 9.38e-4,-9.37e-4 c 0.0781,-0.07857 0.159874,-0.166645 0.244062,-0.264375 0.08419,-0.09773 0.170987,-0.205126 0.259375,-0.321563 0.08839,-0.116439 0.178353,-0.242183 0.269063,-0.376875 0.09071,-0.134694 0.181985,-0.278133 0.273125,-0.430625 0.09114,-0.152494 0.182185,-0.313911 0.271875,-0.48375 0.08969,-0.169841 0.178015,-0.348269 0.264375,-0.535 0.08636,-0.186733 0.170735,-0.381828 0.251875,-0.585 0.08114,-0.20317 0.159085,-0.414283 0.233125,-0.633437 0.07405,-0.219156 0.144002,-0.446253 0.209062,-0.680938 0.06506,-0.234687 0.125185,-0.477113 0.179375,-0.726875 0.0271,-0.124882 0.05284,-0.251435 0.07687,-0.38 0.02403,-0.128567 0.04647,-0.259056 0.06719,-0.39125 0.02072,-0.132192 0.0397,-0.266112 0.05688,-0.401875 0.01718,-0.135765 0.03254,-0.273536 0.04594,-0.412812 0.01341,-0.139278 0.02498,-0.280079 0.03438,-0.422813 0.0094,-0.142736 0.01677,-0.287303 0.02187,-0.433437 0.001,-0.02905 0.001,-0.05895 0.0019,-0.08812 0.01421,0.07221 0.03207,0.169415 0.04594,0.239375 0.01645,0.083 0.03445,0.165742 0.05406,0.247812 0.01961,0.08207 0.04065,0.163345 0.06344,0.244375 0.02279,0.08103 0.04743,0.161683 0.07344,0.241563 0.02601,0.07988 0.05354,0.159192 0.08281,0.237812 0.02927,0.07862 0.06024,0.1565 0.09281,0.23375 0.03257,0.07725 0.0666,0.153918 0.1025,0.229688 0.0359,0.07577 0.07354,0.150507 0.112813,0.224687 0.03928,0.07418 0.08045,0.147823 0.123125,0.220313 0.04268,0.07249 0.087,0.144007 0.133125,0.214687 0.04613,0.07068 0.09383,0.140293 0.143437,0.209063 0.04961,0.06877 0.100933,0.136687 0.154063,0.203437 0.05313,0.06675 0.108007,0.132578 0.164687,0.197188 0.05668,0.06461 0.115345,0.127942 0.175625,0.190312 0.06028,0.06237 0.12235,0.12373 0.18625,0.18375 0.06391,0.06002 0.129618,0.11869 0.197188,0.17625 0.06757,0.05756 0.136855,0.114073 0.208125,0.169063 0.07117,0.05491 0.14419,0.108292 0.21875,0.160312 0.07456,0.05201 0.15078,0.102513 0.22875,0.151563 0.07797,0.04905 0.157684,0.09649 0.239062,0.1425 0.08138,0.04601 0.164567,0.09054 0.249375,0.133437 0.08481,0.04289 0.171137,0.08435 0.259375,0.124063 0.08824,0.03971 0.178312,0.0776 0.27,0.114062 0.09169,0.03646 0.185173,0.07156 0.280313,0.104688 0.09514,0.03313 0.192015,0.06432 0.290625,0.09406 0.09861,0.02974 0.198851,0.05779 0.300937,0.08406 0.102087,0.02627 0.205989,0.05102 0.311563,0.07375 0.105575,0.02273 0.212804,0.04369 0.321875,0.06281 0.109072,0.01912 0.219921,0.03612 0.3325,0.05156 0.112579,0.01544 0.227028,0.02925 0.343125,0.04094 0.116097,0.01168 0.233814,0.02147 0.353437,0.02938 0.119625,0.0079 0.241213,0.0135 0.364375,0.0175 0.123163,0.004 0.247976,0.0063 0.374688,0.0063 H 77.14065 c 0.09692,0 0.19385,-0.0018 0.29125,-0.0053 0.0974,-0.0035 0.195104,-0.0088 0.292812,-0.01594 0.09771,-0.0071 0.195588,-0.01604 0.293438,-0.02688 0.09785,-0.01084 0.195629,-0.02379 0.293437,-0.03844 0.09781,-0.01465 0.195517,-0.03113 0.293125,-0.04969 0.09761,-0.01856 0.195272,-0.03899 0.2925,-0.06156 0.09723,-0.02257 0.194258,-0.04738 0.290938,-0.07406 0.09668,-0.02668 0.1928,-0.05536 0.28875,-0.08625 0.09595,-0.03089 0.191504,-0.06387 0.286562,-0.09906 0.09506,-0.0352 0.189762,-0.07259 0.28375,-0.112188 0.09399,-0.0396 0.187252,-0.08152 0.28,-0.125625 0.09275,-0.0441 0.184922,-0.09036 0.27625,-0.139062 0.09133,-0.0487 0.181813,-0.09972 0.271563,-0.153125 0.08975,-0.0534 0.178885,-0.1093 0.266875,-0.1675 0.08799,-0.0582 0.174879,-0.118775 0.260937,-0.181875 0.08606,-0.0631 0.171353,-0.128775 0.255313,-0.196875 0.08427,-0.06836 0.16709,-0.138988 0.24875,-0.212188 0.08166,-0.0732 0.162029,-0.148765 0.240937,-0.226875 0.07891,-0.07811 0.156482,-0.158795 0.2325,-0.241875 0.07602,-0.08308 0.150458,-0.168755 0.223438,-0.256875 0.07298,-0.08812 0.144575,-0.178665 0.214375,-0.271875 0.0698,-0.09321 0.137895,-0.18913 0.204375,-0.2875 0.06648,-0.09837 0.131052,-0.199219 0.194062,-0.302812 0.06301,-0.103593 0.12435,-0.209875 0.18375,-0.31875 0.0594,-0.108875 0.11686,-0.220469 0.1725,-0.334688 0.05564,-0.11422 0.1095,-0.231 0.16125,-0.350625 0.05174,-0.119626 0.101675,-0.242095 0.149375,-0.367187 0.02423,-0.06352 0.04623,-0.129748 0.06938,-0.194688 0.0049,0.123279 0.01054,0.24606 0.01844,0.366875 0.0094,0.142734 0.02066,0.283847 0.03406,0.423125 0.01341,0.139276 0.02876,0.276735 0.04594,0.4125 0.01718,0.135763 0.03647,0.269683 0.05719,0.401875 0.02072,0.132194 0.04316,0.262683 0.06719,0.39125 0.02402,0.128565 0.04946,0.255118 0.07656,0.38 0.05419,0.249762 0.114315,0.492188 0.179375,0.726875 0.06506,0.234685 0.135023,0.461782 0.209063,0.680938 0.07405,0.219154 0.152299,0.430579 0.233437,0.63375 0.08114,0.203169 0.165203,0.397954 0.251563,0.584687 0.08636,0.186731 0.174999,0.365159 0.264687,0.535 0.08969,0.169839 0.180423,0.331256 0.271563,0.48375 0.09114,0.152492 0.182729,0.296245 0.273437,0.430938 0.09071,0.134691 0.180673,0.260436 0.269063,0.376875 0.08839,0.116439 0.175185,0.22352 0.259375,0.32125 0.08419,0.09773 0.16565,0.186117 0.24375,0.264687 l 0.0012,9.38e-4 c 0.417225,0.419723 0.838267,0.843208 1.273125,1.295937 0.21743,0.226367 0.438202,0.459992 0.66375,0.704063 0.22555,0.244069 0.455733,0.498797 0.691875,0.766875 0.236144,0.268076 0.478289,0.549738 0.7275,0.848125 0.249212,0.298385 0.505559,0.613439 0.770312,0.948437 0.264754,0.334996 0.537856,0.689903 0.820625,1.067813 0.282771,0.377908 0.575177,0.778814 0.878438,1.205937 0.154369,0.217411 0.312999,0.451893 0.475312,0.702188 0.162315,0.250293 0.328557,0.516227 0.498125,0.797187 0.16957,0.280958 0.342305,0.576848 0.518438,0.88625 0.176134,0.309404 0.355495,0.632497 0.5375,0.968125 0.182005,0.335626 0.366879,0.683805 0.554062,1.043438 0.187185,0.359631 0.376764,0.730772 0.568438,1.112187 0.191674,0.381419 0.385468,0.773079 0.580937,1.174063 0.195471,0.400982 0.392675,0.811044 0.59125,1.229375 0.198576,0.418329 0.398386,0.844981 0.599375,1.278437 0.20099,0.433456 0.402885,0.874005 0.605625,1.32 0.405425,0.892727 0.813711,1.80896 1.221875,2.74 0.408165,0.93104 0.816503,1.87684 1.221873,2.828438 0.40538,0.951596 0.80795,1.909041 1.205,2.863437 0.29838,0.717046 0.59312,1.431705 0.88344,2.14 0.29033,0.708295 0.57602,1.410292 0.85594,2.102188 0.55982,1.383784 1.0965,2.72711 1.60062,3.999375 0.50413,1.272261 0.97571,2.473286 1.40531,3.572812 0.42959,1.099526 0.81719,2.097554 1.15344,2.963125 0.441,1.134496 0.79419,2.041713 1.03719,2.652813 0.005,0.0128 0.01,0.02551 0.0159,0.03781 0.024,0.0477 0.0489,0.100725 0.0769,0.158125 v 3.13e-4 c 0.0215,0.0453 0.0445,0.09319 0.0753,0.15 0.0308,0.05681 0.0694,0.122385 0.12313,0.203125 0.0537,0.08074 0.12261,0.17666 0.21281,0.293753 0.0902,0.11708 0.20213,0.2554 0.3425,0.42125 0.22475,0.22675 0.34459,0.3444 0.41219,0.4075 0.0667,0.0623 0.0816,0.0711 0.0969,0.0791 4.7e-4,2.5e-4 7.9e-4,6.8e-4 0.001,9.4e-4 0.842,0.452 2.01788,0.36325 3.74188,-0.50375 2.65995,-1.337872 4.788,-4.860921 5.9,-10.329378 0.5492,-2.700803 0.85522,-5.907358 0.85125,-9.611875 1.1e-4,-0.0206 1.8e-4,-0.04125 3.1e-4,-0.06188 -1.2e-4,-0.05949 5.9e-4,-0.117753 3.1e-4,-0.1775 0.0136,-3.866343 -0.32601,-8.290901 -1.10562,-13.274063 -0.99655,-6.367968 -2.60435,-12.442911 -4.33313,-17.722812 -2.37238,-7.37055 -4.9633,-13.18043 -6.48593,-16.052188 -0.051,-0.0952 -0.13013,-0.171405 -0.22813,-0.2175 -0.60403,-0.286006 -1.24702,-0.549061 -1.91781,-0.7925 -0.0386,-0.01401 -0.0759,-0.02893 -0.11469,-0.04281 -0.23766,-0.08499 -0.47865,-0.167208 -0.72312,-0.247188 -0.24447,-0.07999 -0.49225,-0.157692 -0.74282,-0.232812 -0.25057,-0.07512 -0.50405,-0.147735 -0.76,-0.218125 -0.25596,-0.07039 -0.51438,-0.138575 -0.775,-0.204375 -0.26063,-0.0658 -0.52354,-0.129285 -0.78812,-0.190625 -0.26458,-0.06134 -0.53093,-0.12047 -0.79875,-0.1775 -0.26782,-0.05703 -0.53715,-0.111838 -0.8075,-0.164688 -0.27034,-0.05285 -0.54159,-0.10369 -0.81375,-0.1525 -0.272155,-0.04881 -0.545184,-0.09572 -0.818438,-0.140625 -0.273253,-0.0449 -0.546675,-0.08792 -0.820312,-0.129062 -0.273637,-0.04114 -0.547319,-0.0803 -0.820625,-0.117813 -0.546611,-0.07503 -1.091813,-0.143035 -1.632813,-0.204375 -0.542249,-0.06144 -1.081214,-0.116392 -1.61375,-0.165312 -0.532535,-0.04892 -1.058667,-0.09164 -1.575937,-0.129063 -0.51727,-0.03742 -1.025735,-0.06932 -1.522188,-0.09625 -0.02823,-0.0016 -0.05435,-0.0023 -0.0825,-0.0038 -1.579122,-0.08373 -3.037572,-0.117323 -4.284687,-0.116562 -0.854692,-0.0044 -1.626232,0.0055 -2.279688,0.02688 -0.15079,0.005 -0.284441,0.0774 -0.373125,0.188125 -0.582143,-0.290843 -1.29732,-0.537877 -2.172187,-0.734063 -5.294065,-1.186989 -12.033985,-1.482812 -17.11375,-1.482812 z m 45.009372,73.477809 c -0.0306,-0.0167 -0.0601,-0.0335 -0.0887,-0.0512 l -3.33093,0.56625 c -0.007,0.001 -0.0152,0.002 -0.0222,0.003 0.007,-0.001 0.0152,-0.002 0.0222,-0.003 l 3.33093,-0.56625 c 0.0286,0.0177 0.0582,0.0342 0.0887,0.0509 z M 35.181253,78.390539 c -0.138971,0.142039 -0.271119,0.286001 -0.396563,0.430937 0.12537,-0.144851 0.257682,-0.288979 0.396563,-0.430937 z m 60.665625,5.764375 c 0.246543,0.628286 0.47203,1.221581 0.682812,1.79 -0.210782,-0.568419 -0.436269,-1.161714 -0.682812,-1.79 z"
           transform="translate(-2.9322322e-6,-0.00741362)"
           inkscape:label="Upper" /><path
           id="path1279"
           style="display:inline;fill:#333333;fill-opacity:1;stroke:none;stroke-width:3.2;stroke-linejoin:bevel;stroke-dasharray:none;stroke-opacity:1;paint-order:stroke markers fill"
           class="UnoptimicedTransforms"
           d="m 83.952779,48.563973 c -0.02315,0.06494 -0.04515,0.131168 -0.06938,0.194687 -0.0477,0.125094 -0.09763,0.247562 -0.149375,0.367188 -0.05175,0.119625 -0.105607,0.236405 -0.16125,0.350625 -0.05564,0.114219 -0.113102,0.225812 -0.1725,0.334687 -0.0594,0.108875 -0.12074,0.215157 -0.18375,0.31875 -0.06301,0.103593 -0.127585,0.20444 -0.194063,0.302812 -0.06648,0.09837 -0.134573,0.194286 -0.204375,0.287501 -0.0698,0.09321 -0.141392,0.183756 -0.214375,0.271875 -0.07298,0.08812 -0.147418,0.17379 -0.223437,0.256874 -0.07602,0.08308 -0.153587,0.163762 -0.2325,0.241876 -0.07891,0.07811 -0.159275,0.153671 -0.240938,0.226874 -0.08166,0.0732 -0.164481,0.143832 -0.24875,0.212188 -0.08396,0.0681 -0.169253,0.133773 -0.255312,0.196875 -0.08606,0.0631 -0.172948,0.123671 -0.260938,0.181875 -0.08799,0.0582 -0.177127,0.114096 -0.266875,0.1675 -0.08975,0.0534 -0.180229,0.104422 -0.271562,0.153125 -0.09133,0.0487 -0.183503,0.09496 -0.27625,0.139063 -0.09275,0.0441 -0.186012,0.08603 -0.28,0.125625 -0.09399,0.0396 -0.188694,0.07699 -0.28375,0.112187 -0.09506,0.03519 -0.19061,0.06817 -0.286563,0.09906 -0.09595,0.03089 -0.192073,0.05957 -0.28875,0.08625 -0.09668,0.02668 -0.193709,0.05149 -0.290937,0.07406 -0.09723,0.02257 -0.194892,0.043 -0.2925,0.06156 -0.09761,0.01856 -0.19531,0.03504 -0.293125,0.04969 -0.09781,0.01465 -0.195588,0.0276 -0.293438,0.03844 -0.09785,0.01084 -0.195726,0.01975 -0.293437,0.02688 -0.09771,0.0071 -0.195411,0.01242 -0.292813,0.01594 -0.0974,0.0035 -0.194331,0.0053 -0.29125,0.0053 h -26.23562 c -0.126712,0 -0.251524,-0.0023 -0.374687,-0.0063 -0.123164,-0.004 -0.24475,-0.0096 -0.364375,-0.0175 -0.119625,-0.0079 -0.237341,-0.01769 -0.353438,-0.02937 -0.116097,-0.01169 -0.230546,-0.0255 -0.343125,-0.04094 -0.112579,-0.01544 -0.223428,-0.03244 -0.3325,-0.05156 -0.109071,-0.01912 -0.2163,-0.04008 -0.321875,-0.06281 -0.105574,-0.02273 -0.209475,-0.04748 -0.311562,-0.07375 -0.102088,-0.02627 -0.202327,-0.05432 -0.300938,-0.08406 -0.09861,-0.02974 -0.19548,-0.06093 -0.290625,-0.09406 -0.09514,-0.03313 -0.188624,-0.06823 -0.280312,-0.104687 -0.09169,-0.03646 -0.181757,-0.07435 -0.27,-0.114063 -0.08824,-0.03971 -0.174568,-0.08117 -0.259375,-0.124062 -0.08481,-0.0429 -0.167993,-0.08743 -0.249375,-0.133438 -0.08138,-0.04601 -0.161095,-0.09345 -0.239063,-0.1425 -0.07797,-0.04905 -0.154187,-0.09955 -0.22875,-0.151562 -0.07456,-0.05202 -0.147581,-0.105401 -0.21875,-0.160313 -0.07127,-0.05499 -0.140553,-0.1115 -0.208125,-0.169062 -0.06757,-0.05756 -0.133282,-0.116228 -0.197187,-0.176251 -0.0639,-0.06002 -0.125975,-0.121377 -0.18625,-0.18375 -0.06028,-0.06237 -0.118942,-0.125698 -0.175625,-0.190312 -0.05668,-0.06461 -0.11156,-0.130441 -0.164688,-0.197187 -0.05313,-0.06675 -0.104453,-0.134668 -0.154062,-0.203438 -0.04961,-0.06877 -0.09731,-0.138378 -0.143438,-0.209062 -0.04613,-0.07068 -0.09044,-0.142199 -0.133125,-0.214688 -0.04268,-0.07249 -0.08385,-0.146128 -0.123125,-0.220312 -0.03927,-0.07418 -0.07691,-0.148916 -0.112812,-0.224688 -0.0359,-0.07577 -0.06993,-0.152438 -0.1025,-0.229687 -0.03257,-0.07725 -0.06354,-0.155133 -0.09281,-0.233751 -0.02927,-0.07862 -0.0568,-0.157935 -0.08281,-0.237812 -0.02601,-0.07988 -0.05065,-0.160536 -0.07344,-0.241562 -0.02279,-0.08103 -0.04383,-0.162307 -0.06344,-0.244375 -0.01961,-0.08207 -0.03761,-0.164813 -0.05406,-0.247813 -0.01387,-0.06996 -0.03173,-0.167161 -0.04594,-0.239375 -8.48e-4,0.02918 -8.53e-4,0.05908 -0.0019,0.08813 -0.0051,0.146136 -0.01248,0.290702 -0.02188,0.433438 -0.0094,0.142734 -0.02097,0.283534 -0.03438,0.422812 -0.0134,0.139278 -0.02876,0.277048 -0.04594,0.412813 -0.01718,0.135763 -0.03615,0.269682 -0.05687,0.401874 -0.02072,0.132194 -0.04316,0.262684 -0.06719,0.391251 -0.02403,0.128565 -0.04978,0.255118 -0.07688,0.38 -0.05419,0.249762 -0.114314,0.492188 -0.179375,0.726875 -0.06506,0.234685 -0.135017,0.461781 -0.209063,0.680937 -0.07404,0.219156 -0.15198,0.430267 -0.233125,0.633437 -0.08114,0.203172 -0.165513,0.398268 -0.251875,0.585001 -0.08636,0.186731 -0.174681,0.365159 -0.264375,0.535 -0.08969,0.169839 -0.180732,0.331256 -0.271875,0.48375 -0.09114,0.152492 -0.182417,0.295931 -0.273125,0.430625 -0.09071,0.134692 -0.180674,0.260436 -0.269062,0.376875 -0.08839,0.116437 -0.175189,0.223831 -0.259375,0.321562 -0.08419,0.09773 -0.165963,0.185806 -0.244063,0.264375 l -9.37e-4,9.38e-4 c -0.41725,0.419723 -0.838253,0.843518 -1.273125,1.296249 -0.217437,0.226367 -0.438508,0.459992 -0.664063,0.704063 -0.225553,0.244071 -0.455728,0.498485 -0.691875,0.766563 -0.236145,0.268076 -0.478286,0.549738 -0.7275,0.848125 -0.249212,0.298385 -0.505557,0.61344 -0.770312,0.948437 -0.264755,0.334997 -0.537854,0.689903 -0.820625,1.067813 -0.282772,0.377908 -0.575176,0.778812 -0.878438,1.205937 -0.154368,0.217412 -0.312685,0.451892 -0.475,0.702188 -0.162315,0.250294 -0.328555,0.51654 -0.498125,0.7975 -0.16957,0.280958 -0.342616,0.576847 -0.51875,0.886249 -0.176133,0.309404 -0.355494,0.632185 -0.5375,0.967813 -0.182005,0.335628 -0.366563,0.683805 -0.55375,1.043438 -0.187186,0.359631 -0.376762,0.730769 -0.568437,1.112187 -0.191676,0.381418 -0.385464,0.773391 -0.580938,1.174375 -0.195473,0.400984 -0.39267,0.811044 -0.59125,1.229375 -0.198579,0.418331 -0.398693,0.844667 -0.599687,1.278125 -0.200995,0.433458 -0.402908,0.873947 -0.605625,1.320313 -0.405436,0.892729 -0.813696,1.80927 -1.221875,2.740312 -0.40818,0.931042 -0.816483,1.876838 -1.221875,2.828438 -0.405393,0.951598 -0.807927,1.909039 -1.205,2.863437 -0.298312,0.717023 -0.59315,1.431411 -0.883438,2.139688 -0.290286,0.708275 -0.57603,1.410311 -0.855937,2.102187 -0.559814,1.383752 -1.09647,2.727134 -1.600625,3.999375 -0.504156,1.272241 -0.975662,2.473297 -1.405313,3.572813 -0.42965,1.099514 -0.81745,2.09755 -1.15375,2.963125 -0.440798,1.134596 -0.79325,2.042025 -1.03625,2.653125 -0.0051,0.0128 -0.01067,0.02551 -0.01687,0.03781 -0.0237,0.0477 -0.04895,0.100725 -0.07625,0.158125 -0.0222,0.0468 -0.04568,0.09658 -0.07781,0.155313 -0.03214,0.05873 -0.07281,0.126487 -0.129375,0.209687 -0.05657,0.0832 -0.129196,0.181664 -0.224688,0.301882 -0.09549,0.12019 -0.2139,0.26212 -0.362812,0.43187 -0.45465,0.449 -0.462188,0.45289 -0.469688,0.45687 0.0075,-0.004 0.015,-0.008 0.0225,-0.0128 l 3.915625,0.53 c 0.0222,0.003 0.04447,0.004 0.06687,0.004 0.691495,-1e-5 1.286932,-0.13307 1.815625,-0.42407 0.525695,-0.29 0.950663,-0.71716 1.331563,-1.251249 0.623093,-0.8736 1.183644,-2.120127 1.888437,-3.687813 0.1342,-0.2984 0.273588,-0.6086 0.419688,-0.93 1.219688,-2.683279 2.465394,-5.886153 3.532187,-8.628437 l 0.0975,-0.25 c 0.545195,-1.401388 1.040302,-2.670039 1.46,-3.680625 0.4266,-1.027193 0.756188,-1.739363 0.969688,-2.061563 0.701393,-1.058393 1.624751,-2.423869 3.180937,-3.376562 1.537888,-0.9416 3.750798,-1.511631 7.084375,-0.845938 0.0323,0.0065 0.06502,0.0097 0.09781,0.0097 H 84.05805 c 0.0413,0 0.08219,-0.0049 0.122188,-0.015 2.611184,-0.658995 4.836776,-0.336643 6.641562,0.69375 1.812286,1.034686 3.248265,2.811114 4.216563,5.14 1.177788,2.832579 1.923769,4.946351 2.626562,6.980937 0.0667,0.1934 0.133288,0.38615 0.199688,0.57875 0.632393,1.834886 1.261245,3.659264 2.171247,5.93375 0.084,0.2111 0.16907,0.428688 0.25407,0.649688 0.46,1.185986 0.96093,2.476575 1.73593,3.456875 0.471,0.596697 1.05707,1.099817 1.81407,1.412817 0.758,0.31393 1.65287,0.42493 2.72187,0.29093 0.007,-10e-4 0.0152,-0.002 0.0222,-0.003 l 3.33094,-0.56625 c 0.0286,0.0178 0.0582,0.0345 0.0888,0.0512 -0.0153,-0.008 -0.0302,-0.0168 -0.0969,-0.0791 -0.0676,-0.0631 -0.18744,-0.18075 -0.41219,-0.4075 -0.14037,-0.16585 -0.25225,-0.30417 -0.3425,-0.42125 -0.0902,-0.117089 -0.15909,-0.213016 -0.21281,-0.293752 -0.0537,-0.08074 -0.0923,-0.146317 -0.12312,-0.203125 -0.0308,-0.05681 -0.0538,-0.104702 -0.0753,-0.15 v -3.13e-4 c -0.028,-0.0574 -0.0529,-0.110425 -0.0769,-0.158125 -0.006,-0.0123 -0.0109,-0.02501 -0.0159,-0.03781 -0.243,-0.6111 -0.59619,-1.518315 -1.03719,-2.652813 -0.33625,-0.865573 -0.72384,-1.863597 -1.15343,-2.963125 -0.4296,-1.099528 -0.90119,-2.300547 -1.40532,-3.572812 -0.50412,-1.272267 -1.04078,-2.615587 -1.60062,-3.999375 -0.27992,-0.691896 -0.56561,-1.393891 -0.85594,-2.102188 -0.29032,-0.708297 -0.58506,-1.422952 -0.88344,-2.14 -0.39705,-0.954398 -0.79962,-1.911839 -1.205,-2.863437 -0.40537,-0.9516 -0.813707,-1.897396 -1.221872,-2.828438 -0.408166,-0.931042 -0.81645,-1.847271 -1.221875,-2.74 C 97.860691,72.88167 97.658769,72.441179 97.457779,72.007723 97.256788,71.574265 97.05698,71.147616 96.858404,70.729285 96.659827,70.310954 96.462625,69.900894 96.267154,69.49991 96.071683,69.098926 95.87789,68.707266 95.686216,68.325847 95.494542,67.94443 95.304964,67.573293 95.117779,67.21366 c -0.187185,-0.359633 -0.372058,-0.707811 -0.554063,-1.043437 -0.182005,-0.335628 -0.361366,-0.658722 -0.5375,-0.968126 -0.176133,-0.309402 -0.348867,-0.605291 -0.518437,-0.886249 -0.16957,-0.28096 -0.33581,-0.546893 -0.498125,-0.797188 -0.162315,-0.250295 -0.320944,-0.484776 -0.475313,-0.702187 -0.303261,-0.427125 -0.595666,-0.828028 -0.878437,-1.205938 -0.282771,-0.37791 -0.555871,-0.732816 -0.820625,-1.067812 -0.264755,-0.334998 -0.521101,-0.650051 -0.770313,-0.948438 -0.249211,-0.298387 -0.491356,-0.580047 -0.7275,-0.848125 -0.236142,-0.268078 -0.466325,-0.522804 -0.691875,-0.766875 -0.225548,-0.244071 -0.44632,-0.477696 -0.66375,-0.704063 -0.434858,-0.452731 -0.8559,-0.876212 -1.273125,-1.295937 l -0.0012,-9.38e-4 c -0.0781,-0.07857 -0.159564,-0.166956 -0.24375,-0.264687 -0.08419,-0.09773 -0.170986,-0.204811 -0.259375,-0.32125 -0.08839,-0.116439 -0.178355,-0.242182 -0.269062,-0.376875 -0.09071,-0.134693 -0.182295,-0.278445 -0.273438,-0.430937 -0.09114,-0.152494 -0.181868,-0.313911 -0.271562,-0.48375 -0.08969,-0.169841 -0.178326,-0.348269 -0.264688,-0.535 -0.08636,-0.186733 -0.170417,-0.381517 -0.251562,-0.584688 -0.08114,-0.203171 -0.159392,-0.414594 -0.233438,-0.63375 -0.07404,-0.219156 -0.144001,-0.446252 -0.209062,-0.680937 -0.06506,-0.234687 -0.125181,-0.477113 -0.179375,-0.726875 -0.0271,-0.124882 -0.05254,-0.251435 -0.07656,-0.38 -0.02403,-0.128567 -0.04647,-0.259057 -0.06719,-0.391251 -0.02072,-0.132192 -0.04001,-0.266111 -0.05719,-0.401874 -0.01718,-0.135765 -0.03253,-0.273224 -0.04594,-0.4125 -0.0134,-0.139278 -0.02467,-0.280391 -0.03406,-0.423125 -0.0079,-0.120815 -0.01351,-0.243596 -0.01844,-0.366875 z"
           transform="translate(6.0067768e-5,-0.00729362)"
           inkscape:label="Lower" /></g><path
         id="path1283"
         style="display:inline;fill:#ececec"
         d="m 64.994375,27.455938 c -4.866195,-1e-6 -13.656829,0.4896 -18.085625,1.482499 -0.836899,0.1877 -1.636963,0.377213 -2.344063,0.627813 -0.708099,0.251 -1.354963,0.573888 -1.871562,1.047187 -1.075899,0.9861 -1.440712,2.479365 -1.025312,4.784063 0.122899,0.682199 0.244462,1.356951 0.364062,2.02125 0.824999,4.582595 1.559676,8.664003 2.066875,11.2225 0.2633,1.327999 0.927101,2.543851 2.0675,3.42375 1.138699,0.878599 2.711352,1.390938 4.73875,1.390938 h 26.235313 c 1.550698,-1e-6 3.174201,-0.443839 4.5175,-1.533438 1.348298,-1.093699 2.372412,-2.803915 2.777812,-5.257813 l 0.0022,-0.01375 c 0.776099,-4.698195 1.456412,-8.817603 1.942812,-12.252499 0.1223,-0.8638 0.279062,-2.002439 -0.260938,-3.045938 C 85.565488,30.281401 84.360123,29.443437 82.108125,28.938437 76.81403,27.751439 70.07417,27.455938 64.994375,27.455938 Z m 0,1 c 0.632762,0 1.290458,0.0046 1.966875,0.015 -0.676416,-0.01037 -1.334114,-0.015 -1.966875,-0.015 z m 10.606563,0.486249 c 0.731701,0.07411 1.458374,0.158459 2.174062,0.254063 -0.357844,-0.0478 -0.718345,-0.09271 -1.080937,-0.135 -0.362593,-0.04229 -0.727276,-0.08201 -1.093125,-0.119063 z m 4.282187,0.575938 c 0.687742,0.119321 1.358388,0.250988 2.00625,0.39625 0.265075,0.05944 0.510564,0.122885 0.737813,0.189688 -0.113625,-0.0334 -0.231791,-0.06587 -0.354688,-0.0975 -0.122897,-0.03163 -0.250587,-0.06247 -0.383125,-0.09219 -0.323931,-0.07263 -0.653478,-0.141806 -0.988125,-0.207812 -0.334646,-0.06601 -0.674254,-0.128778 -1.018125,-0.188438 z m 3.90125,1.022813 c 0.160421,0.07813 0.305456,0.158528 0.436875,0.240624 -0.06571,-0.04105 -0.134724,-0.08143 -0.2075,-0.121562 -0.07278,-0.04013 -0.149164,-0.08 -0.229375,-0.119062 z M 43.238438,31.47875 c 5.1e-5,-5.4e-5 2.61e-4,5.4e-5 3.12e-4,0 -0.04204,0.04438 -0.08272,0.09063 -0.121875,0.13875 -0.03915,0.04811 -0.07677,0.09815 -0.112812,0.150313 -0.0021,0.0031 -0.0041,0.0063 -0.0063,0.0094 0.03793,-0.05543 0.07766,-0.108803 0.119062,-0.159688 0.03915,-0.04811 0.07952,-0.09437 0.121563,-0.13875 z m -0.715625,1.729688 c -6.19e-4,0.0064 -0.0016,0.01259 -0.0022,0.01906 -5.82e-4,0.0063 -10e-4,0.013 -0.0016,0.01938 0.0011,-0.01289 0.0025,-0.02568 0.0037,-0.03844 z m 3.630625,17.480312 c 0.04627,0.05267 0.09401,0.10425 0.143125,0.155 -0.04917,-0.0508 -0.0968,-0.102277 -0.143125,-0.155 z m 31.499374,1.748438 c -0.169102,0.01233 -0.338606,0.01863 -0.507499,0.01875 0.168994,-1.15e-4 0.338295,-0.0064 0.507499,-0.01875 z"
         inkscape:label="Touchpad" /><g
         id="g1293"
         style="display:inline;fill:#999999"
         inkscape:label="FaceButtons"><path
           fill-rule="evenodd"
           clip-rule="evenodd"
           d="m 87.500039,47.955791 c 0,-1.933 1.567,-3.5 3.5,-3.5 1.933,0 3.5,1.567 3.5,3.5 0,1.933 -1.567,3.5 -3.5,3.5 -1.933,0 -3.5,-1.567 -3.5,-3.5 z"
           fill="#000000"
           id="path1285"
           sodipodi:nodetypes="sssss"
           style="fill:#999999"
           inkscape:label="Square" /><path
           fill-rule="evenodd"
           clip-rule="evenodd"
           d="m 95.500039,55.955791 c 0,-1.933 1.567,-3.5 3.5,-3.5 1.933001,0 3.500001,1.567 3.500001,3.5 0,1.933 -1.567,3.5 -3.500001,3.5 -1.933,0 -3.5,-1.567 -3.5,-3.5 z"
           fill="#000000"
           id="path1287"
           sodipodi:nodetypes="sssss"
           style="display:inline;fill:#999999"
           inkscape:label="Cross" /><path
           fill-rule="evenodd"
           clip-rule="evenodd"
           d="m 103.50004,47.955791 c 0,-1.933 1.567,-3.5 3.5,-3.5 1.933,0 3.5,1.567 3.5,3.5 0,1.933 -1.567,3.5 -3.5,3.5 -1.933,0 -3.5,-1.567 -3.5,-3.5 z"
           fill="#000000"
           id="path1289"
           sodipodi:nodetypes="sssss"
           style="fill:#999999"
           inkscape:label="Circle" /><path
           fill-rule="evenodd"
           clip-rule="evenodd"
           d="m 95.500039,39.955791 c 0,-1.933 1.567,-3.5 3.5,-3.5 1.933001,0 3.500001,1.567 3.500001,3.5 0,1.933 -1.567,3.5 -3.500001,3.5 -1.933,0 -3.5,-1.567 -3.5,-3.5 z"
           fill="#000000"
           id="path1291"
           sodipodi:nodetypes="sssss"
           style="display:inline;fill:#999999"
           inkscape:label="Triangle" /></g><path
         fill-rule="evenodd"
         clip-rule="evenodd"
         d="m 60.500039,69.955791 c 0,-0.2761 0.2239,-0.5 0.5,-0.5 h 6 c 0.2761,0 0.5,0.2239 0.5,0.5 0,0.2761 -0.2239,0.5 -0.5,0.5 h -6 c -0.2761,0 -0.5,-0.2239 -0.5,-0.5 z"
         fill="#000000"
         id="path1295"
         style="display:inline;fill:#1a1a1a"
         inkscape:label="Mic" /><g
         id="g1305"
         style="display:inline;fill:#999999"
         inkscape:label="Dpad"><path
           fill-rule="evenodd"
           clip-rule="evenodd"
           d="m 26.563839,47.861491 c 0.6321,0.5926 0.6321,1.596 0,2.1886 l -2.1333,2 c -0.2781,0.2606 -0.6449,0.4057 -1.026,0.4057 h -3.4045 c -0.8284,0 -1.5,-0.6716 -1.5,-1.5 v -4 c 0,-0.8284 0.6716,-1.5 1.5,-1.5 h 3.4045 c 0.3811,0 0.7479,0.145 1.026,0.4057 z"
           fill="#000000"
           id="path1297"
           sodipodi:nodetypes="sscsssssscs"
           style="fill:#999999"
           inkscape:label="Right" /><path
           fill-rule="evenodd"
           clip-rule="evenodd"
           d="m 27.905739,51.391991 c 0.5926,-0.6321 1.596,-0.6321 2.1886,0 l 2,2.1333 c 0.2606,0.2781 0.4057,0.6449 0.4057,1.026 v 3.4045 c 0,0.8284 -0.6716,1.5 -1.5,1.5 h -4 c -0.8284,0 -1.5,-0.6716 -1.5,-1.5 v -3.4045 c 0,-0.3811 0.1451,-0.7479 0.4057,-1.026 z"
           fill="#000000"
           id="path1299"
           sodipodi:nodetypes="sscsssssscs"
           style="display:inline;fill:#999999"
           inkscape:label="Down" /><path
           fill-rule="evenodd"
           clip-rule="evenodd"
           d="m 31.436239,50.050091 c -0.6321,-0.5926 -0.6321,-1.596 0,-2.1886 l 2.1333,-2 c 0.2781,-0.2607 0.6449,-0.4057 1.026,-0.4057 h 3.4045 c 0.8284,0 1.5,0.6716 1.5,1.5 v 4 c 0,0.8284 -0.6716,1.5 -1.5,1.5 h -3.4045 c -0.3811,0 -0.7479,-0.1451 -1.026,-0.4057 z"
           fill="#000000"
           id="path1301"
           sodipodi:nodetypes="sscsssssscs"
           style="fill:#999999"
           inkscape:label="Left" /><path
           fill-rule="evenodd"
           clip-rule="evenodd"
           d="m 30.094339,46.519591 c -0.5926,0.6321 -1.596,0.6321 -2.1886,0 l -2,-2.1334 c -0.2606,-0.278 -0.4057,-0.6448 -0.4057,-1.0259 v -3.4045 c 0,-0.8284 0.6716,-1.5 1.5,-1.5 h 4 c 0.8284,0 1.5,0.6716 1.5,1.5 v 3.4045 c 0,0.3811 -0.1451,0.7479 -0.4057,1.0259 z"
           fill="#000000"
           id="path1303"
           sodipodi:nodetypes="cccsssssscc"
           style="display:inline;fill:#999999"
           inkscape:label="Up" /></g><g
         id="g1311"
         transform="translate(33,-27.379174)"
         inkscape:label="RS"><path
           fill-rule="evenodd"
           clip-rule="evenodd"
           d="m 41.500039,91.834965 c 0,-4.4183 3.5817,-8 8,-8 4.4183,0 8,3.5817 8,8 0,4.4183 -3.5817,8 -8,8 -4.4183,0 -8,-3.5817 -8,-8 z"
           fill="#000000"
           id="path1307"
           sodipodi:nodetypes="sssss"
           style="fill:#666666"
           inkscape:label="Outer" /><path
           fill-rule="evenodd"
           clip-rule="evenodd"
           d="m 43.500039,91.834965 c 0,-3.3137 2.6863,-6 6,-6 3.3137,0 6,2.6863 6,6 0,3.3137 -2.6863,6 -6,6 -3.3137,0 -6,-2.6863 -6,-6 z"
           fill="#000000"
           id="path1309"
           sodipodi:nodetypes="sssss"
           style="fill:#1a1a1a"
           inkscape:label="Inner" /></g><g
         id="g1317"
         transform="translate(-4,-27.379174)"
         inkscape:label="LS"><path
           fill-rule="evenodd"
           clip-rule="evenodd"
           d="m 41.500039,91.834965 c 0,-4.4183 3.5817,-8 8,-8 4.4183,0 8,3.5817 8,8 0,4.4183 -3.5817,8 -8,8 -4.4183,0 -8,-3.5817 -8,-8 z"
           fill="#000000"
           id="path1313"
           sodipodi:nodetypes="sssss"
           style="fill:#666666"
           inkscape:label="Outer" /><path
           fill-rule="evenodd"
           clip-rule="evenodd"
           d="m 43.500039,91.834965 c 0,-3.3137 2.6863,-6 6,-6 3.3137,0 6,2.6863 6,6 0,3.3137 -2.6863,6 -6,6 -3.3137,0 -6,-2.6863 -6,-6 z"
           fill="#000000"
           id="path1315"
           sodipodi:nodetypes="sssss"
           style="fill:#1a1a1a"
           inkscape:label="Inner" /></g><path
         fill-rule="evenodd"
         clip-rule="evenodd"
         d="m 91.242539,32.985691 c -0.5358,-0.134 -1.0787,0.1918 -1.2126,0.7276 l -1,4 c -0.134,0.5358 0.1918,1.0787 0.7276,1.2127 0.5358,0.1339 1.0787,-0.1919 1.2127,-0.7276 l 1,-4 c 0.1339,-0.5358 -0.1919,-1.0788 -0.7277,-1.2127 z"
         fill="#000000"
         id="path1319"
         style="display:inline;fill:#999999"
         inkscape:label="Options" /><path
         fill-rule="evenodd"
         clip-rule="evenodd"
         d="m 36.757539,32.985691 c 0.5358,-0.134 1.0787,0.1918 1.2126,0.7276 l 1,4 c 0.134,0.5358 -0.1918,1.0787 -0.7276,1.2127 -0.5358,0.1339 -1.0787,-0.1919 -1.2127,-0.7276 l -1,-4 c -0.1339,-0.5358 0.1919,-1.0788 0.7277,-1.2127 z"
         fill="#000000"
         id="path1321"
         style="display:inline;fill:#999999"
         inkscape:label="Share" /><g
         id="g1327"
         style="display:inline;fill:#1a1a1a"
         inkscape:label="MicHoles"><path
           fill-rule="evenodd"
           clip-rule="evenodd"
           d="m 59.500039,57.955791 c 0,-0.2761 0.2239,-0.5 0.5,-0.5 h 8 c 0.2761,0 0.5,0.2239 0.5,0.5 0,0.2762 -0.2239,0.5 -0.5,0.5 h -8 c -0.2761,0 -0.5,-0.2238 -0.5,-0.5 z"
           fill="#000000"
           id="path1323"
           style="fill:#1a1a1a"
           inkscape:label="Lower" /><path
           fill-rule="evenodd"
           clip-rule="evenodd"
           d="m 57.500039,55.955791 c 0,-0.2761 0.2239,-0.5 0.5,-0.5 h 12 c 0.2761,0 0.5,0.2239 0.5,0.5 0,0.2762 -0.2239,0.5 -0.5,0.5 h -12 c -0.2761,0 -0.5,-0.2238 -0.5,-0.5 z"
           fill="#000000"
           id="path1325"
           style="fill:#1a1a1a"
           inkscape:label="Upper" /></g><path
         id="path1329"
         style="display:inline;fill:#333333;fill-opacity:1;stroke:none;stroke-width:3.2;stroke-linejoin:bevel;stroke-dasharray:none;stroke-opacity:1;paint-order:stroke markers fill"
         class="UnoptimicedTransforms"
         d="m 91.217779,29.581473 c 0.02815,0.0015 0.05427,0.0022 0.0825,0.0038 0.496453,0.02693 1.004917,0.05883 1.522187,0.09625 0.517271,0.03742 1.043402,0.08014 1.575938,0.129063 0.532536,0.04892 1.0715,0.103875 1.61375,0.165313 0.541,0.06134 1.086201,0.129349 1.632812,0.204374 0.273306,0.03751 0.546988,0.07667 0.820625,0.117813 0.273637,0.04114 0.547059,0.08416 0.820313,0.129063 0.273254,0.04491 0.546281,0.09182 0.818436,0.140625 0.27216,0.04881 0.54341,0.09965 0.81375,0.1525 0.27035,0.05285 0.53968,0.107658 0.8075,0.164687 0.26782,0.05703 0.53417,0.116155 0.79875,0.1775 0.26458,0.06134 0.5275,0.124826 0.78813,0.190625 0.26062,0.0658 0.51904,0.133985 0.775,0.204375 0.25595,0.07039 0.50943,0.143006 0.76,0.218125 0.25057,0.07512 0.49834,0.152828 0.74281,0.232813 0.24447,0.07998 0.48546,0.162199 0.72312,0.247187 0.0388,0.01388 0.0761,0.0288 0.11469,0.04281 v -1.805312 c 0,-0.1614 -0.078,-0.313075 -0.21,-0.406875 -1.189,-0.849296 -3.32303,-2.001266 -5.91,-2.744062 -2.588102,-0.743 -5.665486,-1.086584 -8.719374,-0.272188 -0.218799,0.0584 -0.370938,0.256625 -0.370937,0.483125 z"
         transform="translate(-1.15e-4,-0.007508)"
         inkscape:label="R1" /><path
         id="path1331"
         style="display:inline;fill:#333333;fill-opacity:1;stroke:none;stroke-width:3.2;stroke-linejoin:bevel;stroke-dasharray:none;stroke-opacity:1;paint-order:stroke markers fill"
         class="UnoptimicedTransforms"
         d="m 32.357466,26.49991 c -1.774302,7.01e-4 -3.483514,0.301032 -5.020312,0.742188 -2.587089,0.742796 -4.721004,1.894766 -5.91,2.744062 -0.131397,0.0938 -0.209375,0.245475 -0.209375,0.406875 v 1.82 c 0,0.03852 0.0046,0.07638 0.01312,0.113125 0.151169,-0.05733 0.301339,-0.115454 0.455625,-0.170625 0.237668,-0.08499 0.478963,-0.167515 0.723437,-0.2475 0.244475,-0.07999 0.492245,-0.157381 0.742813,-0.2325 0.250568,-0.07512 0.504052,-0.147735 0.76,-0.218125 0.255948,-0.07039 0.514385,-0.138576 0.775,-0.204375 0.260615,-0.0658 0.523244,-0.12928 0.787812,-0.190625 0.264569,-0.06134 0.530942,-0.120471 0.79875,-0.1775 0.267809,-0.05703 0.537165,-0.112149 0.8075,-0.165 0.270336,-0.05285 0.541601,-0.103378 0.81375,-0.152187 0.27215,-0.04881 0.545188,-0.09572 0.818438,-0.140625 0.27325,-0.04491 0.546988,-0.08792 0.820625,-0.129063 0.273637,-0.04114 0.547314,-0.0803 0.820625,-0.117813 0.546621,-0.07503 1.091775,-0.143037 1.632812,-0.204374 0.54225,-0.06146 1.080902,-0.116375 1.613438,-0.165313 0.532536,-0.04894 1.058979,-0.09195 1.57625,-0.129375 0.433677,-0.03138 0.856577,-0.05668 1.275937,-0.08062 -0.0088,5.03e-4 -0.01713,7.44e-4 -0.02594,0.0012 v -2.14875 c -10e-7,-0.2265 -0.15245,-0.424725 -0.37125,-0.483125 -1.2406,-0.33085 -2.485066,-0.470479 -3.699063,-0.47 z"
         transform="translate(3.0067768e-5,-0.00732362)"
         inkscape:label="L1" /></g></g><rect
     style="fill:#cccccc;stroke-width:3.81445;stroke-linecap:round;stroke-linejoin:round;stroke-dashoffset:47.6;paint-order:markers fill stroke"
     id="rect8544"
     width="6.6157484"
     height="20.014925"
     x="96.14537"
     y="96.99942" /><g
     id="rect4883"><path
       style="fill:#ffd42a;stroke-width:3.6963"
       d="M 55.486,92.221647 V 103.31054 H 29.611848 l 36.963064,18.48158 V 110.70323 H 96.14537"
       id="path8598" /><path
       style="color:#000000;fill:#2bad2b;stroke-width:2.24247;stroke-linecap:round;stroke-linejoin:round;stroke-dashoffset:47.6;-inkscape-stroke:none;paint-order:markers fill stroke"
       d="M 27.376266,92.095688 H 98.380951 V 121.91807 H 27.376266 Z"
       id="path8558" /><rect
       style="fill:#333333;fill-opacity:1;stroke:none;stroke-width:1.59513;stroke-linecap:round;stroke-linejoin:round;stroke-dasharray:none;stroke-dashoffset:47.6;stroke-opacity:1;paint-order:markers fill stroke"
       id="rect8730"
       width="70.57283"
       height="29.822382"
       x="27.808121"
       y="92.09568" /><path
       id="path8560"
       style="color:#000000;fill:#cccccc;stroke-linecap:round;stroke-linejoin:round;stroke-dashoffset:47.6;-inkscape-stroke:none;paint-order:markers fill stroke"
       d="M 27.376875 90.974688 A 1.1213471 1.1213471 0 0 0 26.255938 92.095625 L 26.255938 121.91813 A 1.1213471 1.1213471 0 0 0 27.376875 123.03906 L 98.380938 123.03906 A 1.1213471 1.1213471 0 0 0 99.501875 121.91813 L 99.501875 92.095625 A 1.1213471 1.1213471 0 0 0 98.380938 90.974688 L 27.376875 90.974688 z M 28.498125 93.216875 L 44.005938 93.216875 L 44.005938 120.79688 L 28.498125 120.79688 L 28.498125 93.216875 z M 46.248125 93.216875 L 61.757812 93.216875 L 61.757812 120.79688 L 46.248125 120.79688 L 46.248125 93.216875 z M 64 93.216875 L 79.507812 93.216875 L 79.507812 120.79688 L 64 120.79688 L 64 93.216875 z M 81.751875 93.216875 L 97.259687 93.216875 L 97.259687 120.79688 L 81.751875 120.79688 L 81.751875 93.216875 z M 102.27031 100.47844 L 102.27031 113.53531 L 102.27031 100.47844 z " /></g></svg>
